<?xml version="1.0" encoding="utf-8"?>
<!-- Generator: Adobe Illustrator 25.0.1, SVG Export Plug-In . SVG Version: 6.00 Build 0)  -->
<svg version="1.1" id="Capa_1" xmlns="http://www.w3.org/2000/svg" xmlns:xlink="http://www.w3.org/1999/xlink" x="0px" y="0px"
	 viewBox="0 0 841.9 595.3" style="enable-background:new 0 0 841.9 595.3;" xml:space="preserve">
<style type="text/css">
	.st0{fill:#FFFFFF;}
</style>
<g id="Fondo">
</g>
<g id="Logo">
	<g>
		<path class="st0" d="M616.6,278.8c-4.9,6.6-22.5,4.5-26.4,1.8c-3.9-2.7-9.3-12-9.8-18c-0.5-6,5.4-17,10.3-21.6
			c4.9-4.6,17.6,0,17.6,0c2.7,0.8,12.7,12.9,15.6,17.9C626.8,264,621.5,272.2,616.6,278.8 M608.3,192c0,0-29.4-11.6-53.7-15.6
			c-2.8-0.9-7.5-2.5-6.1-5.4c12-47.7,32.3-65.9,45.7-108.4c-20-2.6-33.8-7.7-48.2-16c-15.9,46.6-19.7,78.4-34.5,125.9
			c-3.6-0.1-13.1,1.1-13.5-2.3c4.4-57.3,7.5-96.6,11.2-151.1c-13.5-6.3-33.1-2.9-53.1-2.5c3.3,49,7.4,108.7,8.9,159.4
			c-4,0.5-7.7,1.4-11.8,2.1c-3.1-8-21.3-109.4-31-148.9c-17,7-59.2,5.5-54.9,21c2.4,8.7,11.6,26.4,15.2,36.5
			c13.8,38.9,24.2,74.5,34,99.4c-31.1-40.3-38.7-66.9-72.6-99.8c-11.9,12-29.9,25-39.6,38.9c30.6,29.5,49.4,46.8,78.2,74.7
			c-51.9,22.2-94,58.3-109,68.8c0,0-1,0.7-2.8,2.1C249,245.3,194.2,187,139.3,173l-6.2,77.8l37.2,26.8l-27.5,19.8l7.1,42.4l45.2-5.7
			l-45.2,29l9.4,70c0,0,58-16.4,108.3-94.2c5.8,3.5,12.7,7.2,21.7,11.1c20.2,8.8,75.4,44.2,108.6,52.5
			c-30.3,33.1-33.9,29.7-81.2,69.1c14.3,13.8,23.2,21.3,40.9,32.5c14.1-22,48.6-62.8,70.1-93.1c-11.6,51.2-35.7,106.8-48.4,156.8
			c17.4,3.9,40,9.4,59.6,7.8c4.4-52.9,5.1-108.7,11.4-159.4c3.4-1.7,13.5-0.9,16.6,1.2c0.5,53.7-0.5,112.2,1.2,161.5
			c18.7,0.9,35.5-0.3,51.5-2.4c-9.4-53.3-24.1-108.3-30.8-160c1.7,0.3,6.2-1,10.3-0.5c18.5,49.3,37.1,62.7,54.3,113
			c20.1-6.3,33.9-10.8,53.4-26.4c-32.2-38.9-55.1-55.4-88.3-87.7c18.3-1.3,36.4-4.2,53.9-9.5c8.2-2.4,40.8-17.8,40.8-17.8l44.8-25.1
			c0,0,37.1-31,50.5-64.5c2.1-5.3-2.2-19.8-2.1-26.2C706.5,243.9,636.4,205.6,608.3,192"/>
	</g>
</g>
</svg>
