<?xml version="1.0" encoding="utf-8"?>
<!-- Generator: Adobe Illustrator 25.0.1, SVG Export Plug-In . SVG Version: 6.00 Build 0)  -->
<svg version="1.1" id="Capa_1" xmlns="http://www.w3.org/2000/svg" xmlns:xlink="http://www.w3.org/1999/xlink" x="0px" y="0px"
	 viewBox="0 0 64.8 30.1" style="enable-background:new 0 0 64.8 30.1;" xml:space="preserve">
<style type="text/css">
	.st0{fill-rule:evenodd;clip-rule:evenodd;fill:#00B4D5;}
</style>
<path class="st0" d="M10,26.5c0-0.9,0.8-1.4,2-1.4h40.7c1.2,0,2,0.6,2,1.4s-0.8,1.4-2,1.4H12C10.8,27.9,10,27.4,10,26.5z M10,15
	c0-0.9,0.8-1.4,2-1.4h40.7c1.2,0,2,0.6,2,1.4c0,0.9-0.8,1.4-2,1.4H12C10.8,16.5,10,15.9,10,15z M10,3.6c0-0.9,0.8-1.4,2-1.4h40.7
	c1.2,0,2,0.6,2,1.4S54,5,52.8,5H12C10.8,5,10,4.4,10,3.6z"/>
</svg>
