<?xml version="1.0" encoding="utf-8"?>
<!-- Generator: Adobe Illustrator 25.0.1, SVG Export Plug-In . SVG Version: 6.00 Build 0)  -->
<svg version="1.1" id="Capa_1" xmlns="http://www.w3.org/2000/svg" xmlns:xlink="http://www.w3.org/1999/xlink" x="0px" y="0px"
	 viewBox="0 0 100 34" style="enable-background:new 0 0 100 34;" xml:space="preserve">
<style type="text/css">
	.st0{fill:#00B4D5;stroke:#8E949A;stroke-width:0.15;stroke-miterlimit:10;}
</style>
<g>
	<g>
		<g>
			<path class="st0" d="M17.3,20.3c-1.2,0.5-2.4,1-4,1c-0.7,0-1.5-0.1-2.3-0.4c-0.2-0.1-0.3,0.2-0.2,0.3c1.7,1.2,4.1,1.8,6.9,1.8
				h0.1c0.1-0.1,0.1-0.1,0.2-0.2c0.9-0.9,1.6-1.9,2-3.1c0-0.1-0.1-0.2-0.2-0.2C19,19.5,18.2,20,17.3,20.3z"/>
			<path class="st0" d="M9.4,21c-0.4-0.4-0.8-0.9-1-1.3c-0.1-0.2-0.4-0.1-0.3,0.1c0.4,1.8,1.3,3.6,2.8,5.4l0.1,0.1
				c0.2,0,0.4,0,0.6,0.1h0.1l0,0h0.6l0,0c0.1,0,0.3,0,0.4,0c1.4-0.1,2.7-0.6,3.8-1.3c0.1-0.1,0.1-0.3-0.1-0.3
				C13.9,23.5,11.3,22.8,9.4,21z"/>
			<path class="st0" d="M10.8,10.3c1.8-0.1,3.4,0.1,4.5,0.3c0.2,0,0.3-0.2,0.1-0.3c-0.8-0.7-2.7-2-4.8-1.9l0,0
				c-3.4,0.2-5,1.4-6.5,4.3l0,0c0,0.1,0.1,0.2,0.2,0.2C5.9,11.3,8,10.4,10.8,10.3z"/>
			<path class="st0" d="M7.2,13.5c0.7-0.7,1.5-1.2,2.3-1.7l0,0l0,0c0.5-0.3,1-0.5,1.5-0.6c0.1,0,0.1-0.2,0-0.2s-0.1,0-0.2,0
				c-3.6,0.2-6.2,1.7-7.5,4.5c0,0,0,0,0,0.1c0,0.3,0,0.5-0.1,0.8v0.1l0,0v0.3l0,0c0,0.2,0,0.4,0,0.6c0.1,1,0.3,1.9,0.7,2.8
				c0.1,0.1,0.4,0,0.4-0.2C4.6,17.3,5.5,15.1,7.2,13.5z"/>
			<path class="st0" d="M32.8,16c-0.2-1.9-0.9-3.6-2.2-5c-1.7-1.7-3.8-2.7-6.4-2.7c-1.5,0-3,0.4-4.3,1.2c-2.4,1.5-3.7,3.9-4.1,6.5
				c0,0.3-0.1,0.5-0.1,0.8l0,0c0,0.4,0.5,0.6,0.8,0.4c1-0.9,2.2-2.1,3.8-2.4c0.1,0,0.3-0.1,0.3-0.2c0.4-0.6,0.9-1.1,1.7-1.5
				c2.4-1.3,5.3,0.1,5.9,2.7c0.5,2.2-1,4.5-3.2,5c-0.9,0.2-1.7,0.1-2.5-0.3c-0.2-0.1-0.5,0-0.6,0.2c-0.6,1.1-1.1,1.9-1.7,3
				c-0.2,0.3-0.1,0.5,0.1,0.6c1.1,0.6,2.2,0.9,3.5,0.9h0.1h0.6l0,0c0.1,0,0.3,0,0.4,0c2.1-0.2,3.9-1,5.4-2.6c1.2-1.3,2-2.8,2.3-4.5
				c0.1-0.3,0.1-0.6,0.1-0.9c0,0,0,0,0-0.1C32.7,17.1,32.8,16.1,32.8,16z"/>
			<path class="st0" d="M20.8,15.6c0-0.1-0.1-0.1-0.1-0.1c-2,0.5-3.3,1.9-4.5,3.1c-0.7,0.7-1.2,1.3-1.9,1.7c-0.1,0.1,0,0.2,0.1,0.2
				c0.9-0.2,1.7-0.5,2.5-0.9c1.1-0.5,2.1-0.9,3.3-0.9c0.1,0,0.1,0,0.1-0.1c0.1-0.2,0.1-0.5,0.1-0.7c0.1-0.5,0.1-1.1,0.1-1.7
				C20.7,16,20.7,15.8,20.8,15.6z"/>
			<path class="st0" d="M7.2,18.8C7.1,17,7.5,15.4,8,14.2C8.1,14,7.9,13.9,7.7,14l0,0c-1.8,1.8-2.8,4.4-2.8,7.7l0,0
				C5,22,5.1,22,5.3,22.2c1.1,1.3,2.4,2.2,4,2.7c0.2,0,0.3-0.1,0.2-0.3C8.1,22.8,7.3,20.8,7.2,18.8z"/>
		</g>
		<g>
			<path class="st0" d="M37.2,13.4c0-0.1,0.1-0.3,0.2-0.3h1.4c0.1,0,0.2,0.1,0.2,0.2l0.1,1.7h0.2c0.7-1.1,1.8-2.2,3.8-2.2
				c1.6,0,2.9,1,3.4,2.4l0,0c0.4-0.7,0.8-1.2,1.3-1.6c0.7-0.5,1.5-0.8,2.6-0.8c1.6,0,3.9,1,3.9,5.2v7c0,0.1-0.1,0.2-0.2,0.2h-1.6
				c-0.1,0-0.2-0.1-0.2-0.2v-6.7c0-2.3-0.8-3.7-2.6-3.7c-1.2,0-2.2,0.9-2.6,2c-0.1,0.3-0.2,0.7-0.2,1.1V25c0,0.1-0.1,0.2-0.2,0.2
				h-1.6c-0.1,0-0.2-0.1-0.2-0.2V18c0-1.9-0.8-3.3-2.5-3.3c-1.4,0-2.3,1.1-2.7,2.2c-0.1,0.3-0.2,0.7-0.2,1.1V25
				c0,0.1-0.1,0.2-0.2,0.2h-1.6c-0.1,0-0.2-0.1-0.2-0.2C37.5,25,37.3,14.3,37.2,13.4z"/>
			<path class="st0" d="M64.8,25.3c-0.1,0-0.2-0.1-0.2-0.2l-0.1-1.4h-0.2c-0.7,0.9-2,1.8-3.7,1.8c-2.4,0-3.7-1.7-3.7-3.4
				c0-2.8,2.5-4.4,6.9-4.4c0.1,0,0.2-0.1,0.2-0.2l0,0c0-1-0.3-2.8-2.7-2.8c-1,0-2,0.3-2.9,0.7c-0.1,0.1-0.3,0-0.4-0.1l-0.3-1
				c0-0.1,0-0.2,0.1-0.3c1-0.6,2.3-1,3.8-1c3.7,0,4.5,2.5,4.5,4.9v4.4c0,0.9,0,2,0.2,2.7c0,0.1-0.1,0.3-0.2,0.3H64.8z M64.2,19.3
				c0-0.1-0.1-0.2-0.2-0.2c-2.3,0-4.8,0.5-4.8,2.7c0,1.4,0.9,2.1,2.1,2.1c1.6,0,2.5-1,2.9-2c0.1-0.2,0.1-0.5,0.1-0.7L64.2,19.3
				L64.2,19.3z"/>
			<path class="st0" d="M69.8,17c0-1.3,0-2.4-0.1-3.5c0-0.1,0.1-0.3,0.2-0.3h1.4c0.1,0,0.2,0.1,0.2,0.2l0.1,2.1h0.1
				c0.5-1.6,1.9-2.6,3.3-2.6c0.2,0,0.3,0,0.4,0s0.2,0.1,0.2,0.2v1.6c0,0.2-0.1,0.3-0.3,0.2c-0.1,0-0.3,0-0.5,0
				c-1.5,0-2.6,1.2-2.9,2.8c0,0.3-0.1,0.6-0.1,1V25c0,0.1-0.1,0.2-0.2,0.2h-1.7c-0.1,0-0.2-0.1-0.2-0.2L69.8,17z"/>
			<path class="st0" d="M79.2,19.6c-0.1,0-0.3,0.1-0.2,0.3c0.2,2.7,2,3.9,4.1,3.9c1.4,0,2.3-0.2,3-0.5c0.1-0.1,0.3,0,0.3,0.2
				l0.3,1.1c0,0.1,0,0.2-0.1,0.3c-0.8,0.3-2,0.7-3.8,0.7c-3.7,0-5.9-2.4-5.9-6c0-3.6,2.1-6.5,5.6-6.5c3.9,0,4.9,3.4,4.9,5.6
				c0,0.3,0,0.6,0,0.8c0,0.1-0.1,0.2-0.2,0.2h-8V19.6z M85,18c0.1,0,0.3-0.1,0.2-0.3c-0.1-1.4-0.7-3.3-3-3.3c-2.1,0-3,1.8-3.3,3.2
				c0,0.2,0.1,0.3,0.2,0.3H85V18z"/>
			<path class="st0" d="M89.4,23.2c0-0.1,0.2-0.2,0.4-0.1c0.7,0.4,1.7,0.7,2.6,0.7c1.6,0,2.3-0.8,2.3-1.8s-0.6-1.6-2.2-2.2
				c-2.2-0.8-3.2-2-3.2-3.4c0-1.9,1.6-3.5,4.1-3.5c1.1,0,2.1,0.3,2.8,0.6c0,0.1,0.1,0.2,0.1,0.4l-0.4,1.1c0,0.1-0.2,0.2-0.4,0.1
				c-0.5-0.3-1.2-0.5-2.2-0.5c-1.3,0-2,0.7-2,1.6c0,1,0.7,1.4,2.3,2c2.1,0.8,3.1,1.8,3.1,3.6c0,2.1-1.6,3.6-4.5,3.6
				c-1.2,0-2.3-0.3-3.2-0.7c-0.1-0.1-0.2-0.2-0.1-0.3L89.4,23.2z"/>
		</g>
	</g>
</g>
</svg>
