<?xml version="1.0" encoding="utf-8"?>
<!-- Generator: Adobe Illustrator 25.0.1, SVG Export Plug-In . SVG Version: 6.00 Build 0)  -->
<svg version="1.1" id="Capa_1" xmlns="http://www.w3.org/2000/svg" xmlns:xlink="http://www.w3.org/1999/xlink" x="0px" y="0px"
	 viewBox="0 0 93.5 24.5" style="enable-background:new 0 0 93.5 24.5;" xml:space="preserve">
<style type="text/css">
	.st0{fill:#00B4D5;}
</style>
<path class="st0" d="M14.1,12c-1.2,0.6-2.6,1-4,1c-0.8,0-1.6-0.1-2.3-0.4c-0.1,0-0.2,0-0.2,0.1c0,0.1,0,0.1,0.1,0.2
	c2.1,1.3,4.5,1.9,6.9,1.8c0,0,0.1,0,0.1,0l0.2-0.2c0.9-0.9,1.6-1.9,2-3.1c0-0.1,0-0.2-0.1-0.2c0,0,0,0-0.1,0
	C15.8,11.3,14.9,11.6,14.1,12z"/>
<path class="st0" d="M6.2,12.6c-0.4-0.4-0.7-0.8-1-1.3c-0.1-0.1-0.2-0.1-0.3,0c0,0-0.1,0.1-0.1,0.2c0.5,2,1.4,3.8,2.8,5.4
	c0,0,0.1,0.1,0.1,0.1L8.4,17H9l0.5,0c1.4-0.1,2.7-0.5,3.8-1.3c0.1-0.1,0.1-0.2,0-0.3c0,0-0.1-0.1-0.1-0.1
	C10.6,15.3,8.1,14.4,6.2,12.6z"/>
<path class="st0" d="M7.5,2c1.5-0.1,3,0,4.5,0.3c0.1,0,0.2,0,0.2-0.1c0-0.1,0-0.1-0.1-0.2c-1.3-1.2-3-1.9-4.8-2l0,0
	C4,0.3,2.5,1.5,0.9,4.4l0,0c0,0.1,0,0.1,0.1,0.1c0,0,0.1,0,0.1,0C2.9,3,5.2,2,7.5,2z"/>
<path class="st0" d="M4,5.2C4.6,4.5,5.4,4,6.3,3.5l0,0l0,0c0.5-0.2,1-0.5,1.5-0.6c0.1,0,0.1-0.1,0.1-0.1c0,0,0-0.1-0.1-0.1H7.6
	C4,2.9,1.4,4.4,0.1,7.2c0,0,0,0,0,0.1c0,0.3,0,0.5,0,0.8c0,0,0,0.1,0,0.1v0.3c0,0.2,0,0.4,0,0.6c0.1,1,0.3,1.9,0.7,2.8
	c0.1,0.1,0.2,0.1,0.2,0c0,0,0.1-0.1,0.1-0.1C1.3,9.3,2.3,7,4,5.2z"/>
<path class="st0" d="M29.6,7.7c-0.2-1.9-0.9-3.6-2.2-5C25.8,0.9,23.4-0.1,21,0c-1.5,0-3,0.4-4.3,1.2c-2.3,1.4-3.8,3.9-4.1,6.5
	c0,0.3-0.1,0.5-0.1,0.8l0,0c0,0.3,0.2,0.5,0.5,0.5c0.1,0,0.2,0,0.3-0.1c1-1.1,2.3-2,3.8-2.4c0.1,0,0.3-0.1,0.3-0.2
	c0.4-0.6,1-1.1,1.7-1.5c2-1.1,4.5-0.3,5.6,1.7s0.3,4.5-1.7,5.6c-1.1,0.6-2.4,0.6-3.6,0.1c-0.2-0.1-0.5,0-0.6,0.2
	c-0.6,1.1-1.1,2-1.8,3C17,15.6,17,15.9,17.2,16c0,0,0,0,0.1,0c1.1,0.6,2.3,0.9,3.5,0.9h0.1h0.6h0.4c3.9-0.3,7-3.3,7.7-7.1
	c0-0.3,0.1-0.6,0.1-0.9c0,0,0,0,0-0.1V8.1C29.6,8,29.6,7.8,29.6,7.7z"/>
<path class="st0" d="M17.6,7.3c0-0.1,0-0.1-0.1-0.1c0,0,0,0,0,0c-1.8,0.6-3.3,1.7-4.5,3.1c-0.5,0.6-1.2,1.2-1.8,1.7c0,0,0,0.1,0,0.2
	c0,0,0.1,0,0.1,0c0.9-0.2,1.7-0.5,2.5-0.9c1-0.6,2.2-0.9,3.3-0.9c0,0,0.1,0,0.1-0.1c0.1-0.2,0.1-0.5,0.1-0.7
	c0.1-0.6,0.1-1.1,0.1-1.7C17.5,7.7,17.5,7.5,17.6,7.3z"/>
<path class="st0" d="M4,10.5C3.9,8.9,4.1,7.3,4.8,5.9c0-0.1,0-0.2-0.1-0.2c-0.1,0-0.1,0-0.2,0l0,0c-1.8,1.8-2.8,4.4-2.8,7.7l0,0
	l0.4,0.5c1,1.3,2.4,2.2,4,2.7c0.1,0,0.2,0,0.2-0.1c0-0.1,0-0.1,0-0.2C5,14.6,4.2,12.6,4,10.5z"/>
<path class="st0" d="M34.1,8.1c0-1.1,0-2.1-0.1-3c0-0.1,0.1-0.3,0.2-0.3c0,0,0,0,0,0h1.4c0.1,0,0.2,0.1,0.2,0.2L36,6.8h0.1
	c0.7-1.4,2.2-2.2,3.8-2.2c1.5,0,2.9,1,3.4,2.4h0c0.3-0.6,0.8-1.1,1.3-1.6c0.8-0.6,1.7-0.9,2.6-0.8c1.6,0,3.9,1,3.9,5.2v7
	c0,0.1-0.1,0.2-0.2,0.2h-1.6c-0.1,0-0.2-0.1-0.2-0.2v0v-6.7c0-2.3-0.8-3.7-2.6-3.7c-1.2,0-2.2,0.9-2.6,2c-0.1,0.3-0.2,0.7-0.2,1.1
	v7.3c0,0.1-0.1,0.2-0.2,0.2h-1.6c-0.1,0-0.2-0.1-0.2-0.2V9.7c0-1.9-0.8-3.3-2.5-3.3c-1.3,0.1-2.3,1-2.7,2.2
	c-0.1,0.3-0.2,0.7-0.2,1.1v7.1c0,0.1-0.1,0.2-0.2,0.2h-1.6c-0.1,0-0.2-0.1-0.2-0.2V8.1z"/>
<path class="st0" d="M61.6,17c-0.1,0-0.2-0.1-0.2-0.2l-0.2-1.4h-0.1c-0.9,1.1-2.2,1.8-3.7,1.8c-1.9,0.1-3.5-1.3-3.7-3.2
	c0-0.1,0-0.2,0-0.3c0-2.8,2.5-4.4,6.9-4.4C60.9,9.2,61,9.1,61,9l0,0c0.2-1.3-0.8-2.6-2.1-2.8c-0.2,0-0.4,0-0.6,0c-1,0-2,0.3-2.9,0.8
	c-0.1,0.1-0.3,0-0.3-0.1c0,0,0,0,0,0l-0.3-1c0-0.1,0-0.2,0.1-0.3c1.1-0.7,2.4-1,3.8-1c3.7,0,4.5,2.5,4.5,4.9V14c0,0.9,0,1.8,0.2,2.7
	c0,0.1-0.1,0.3-0.2,0.3c0,0,0,0,0,0L61.6,17z M61,11c0-0.1-0.1-0.2-0.2-0.2c-2.3,0-4.8,0.4-4.8,2.7c-0.1,1.1,0.7,2,1.8,2.1
	c0.1,0,0.2,0,0.2,0c1.3,0,2.5-0.8,2.9-2c0.1-0.2,0.1-0.5,0.1-0.7L61,11z"/>
<path class="st0" d="M66.6,8.6c0-1.3,0-2.4-0.1-3.5c0-0.1,0.1-0.2,0.2-0.3c0,0,0,0,0,0h1.4c0.1,0,0.2,0.1,0.2,0.2l0.1,2.1h0.1
	c0.4-1.5,1.8-2.6,3.3-2.6c0.1,0,0.3,0,0.4,0c0.1,0,0.2,0.1,0.2,0.2v1.6c0,0.1-0.1,0.3-0.3,0.3c0,0,0,0,0,0c-0.2,0-0.3,0-0.5,0
	c-1.5,0-2.8,1.2-2.9,2.8c-0.1,0.3-0.1,0.7-0.1,1v6.3c0,0.1-0.1,0.2-0.2,0.2h-1.7c-0.1,0-0.2-0.1-0.2-0.2V8.6z"/>
<path class="st0" d="M75.9,11.3c-0.1,0-0.2,0.1-0.2,0.2c0,0,0,0,0,0c-0.1,2.1,1.6,3.8,3.7,3.9c0.1,0,0.3,0,0.4,0c1,0,2-0.2,3-0.5
	c0.1,0,0.3,0,0.3,0.1c0,0,0,0,0,0l0.2,1.1c0,0.1,0,0.2-0.1,0.3c-1.2,0.5-2.5,0.7-3.8,0.7c-3.7,0-5.9-2.4-5.9-6s2.1-6.4,5.6-6.4
	c3.9,0,5,3.4,5,5.6c0,0.3,0,0.5,0,0.8c0,0.1-0.1,0.2-0.2,0.2L75.9,11.3z M81.8,9.7c0.1,0,0.2-0.1,0.2-0.2c0,0,0,0,0,0
	c0-1.4-0.7-3.3-3-3.3c-2.1,0-3,1.8-3.3,3.2c0,0.1,0.1,0.3,0.2,0.3c0,0,0,0,0,0H81.8z"/>
<path class="st0" d="M86.2,14.9c0.1-0.1,0.2-0.2,0.3-0.2c0,0,0,0,0,0c0.8,0.4,1.7,0.7,2.6,0.7c1.6,0,2.3-0.8,2.3-1.8
	s-0.6-1.6-2.2-2.2c-2.1-0.8-3.1-2-3.1-3.4c0-1.9,1.6-3.5,4.1-3.5c1,0,1.9,0.2,2.8,0.6c0.1,0.1,0.2,0.2,0.1,0.3l-0.4,1.1
	c0,0.1-0.2,0.2-0.3,0.2c0,0,0,0,0,0c-0.7-0.4-1.5-0.6-2.3-0.6c-1.3,0-2,0.7-2,1.6s0.7,1.4,2.3,2c2.1,0.8,3.1,1.8,3.1,3.6
	c0,2.1-1.6,3.6-4.5,3.6c-1.1,0-2.2-0.2-3.2-0.7c-0.1-0.1-0.2-0.2-0.1-0.3L86.2,14.9z"/>
<path class="st0" d="M2.4,21.9h-1c-0.1,0-0.2,0.1-0.2,0.2c0,0,0,0,0,0V23c0,0.1,0.1,0.2,0.2,0.2l0,0h1.2c0.1,0,0.2,0.1,0.2,0.2l0,0
	l0,0c0,0.1-0.1,0.2-0.2,0.2H0.9c-0.1,0-0.2-0.1-0.2-0.2v-3.1c0-0.1,0.1-0.2,0.2-0.2h1.5c0.1,0,0.2,0.1,0.2,0.2c0,0,0,0,0,0l0,0
	c0,0.1-0.1,0.2-0.2,0.2c0,0,0,0,0,0H1.4c-0.1,0-0.2,0.1-0.2,0.2c0,0,0,0,0,0v0.7c0,0.1,0.1,0.2,0.2,0.2h1c0.1,0,0.2,0.1,0.2,0.2l0,0
	C2.6,21.8,2.5,21.9,2.4,21.9C2.4,21.9,2.4,21.9,2.4,21.9z"/>
<path class="st0" d="M3.2,23.2c0-0.1,0.1-0.1,0.2-0.1c0.1,0.1,0.3,0.1,0.4,0.1c0.3,0,0.5-0.2,0.5-0.4s-0.1-0.3-0.5-0.5
	S3.2,22,3.2,21.7C3.2,21.3,3.6,21,4,21c0,0,0,0,0,0c0.2,0,0.3,0,0.5,0.1c0.1,0,0.1,0.1,0.1,0.2l0,0c0,0.1-0.1,0.1-0.2,0.1
	c-0.1,0-0.2-0.1-0.3-0.1c-0.3,0-0.4,0.1-0.4,0.3s0.2,0.3,0.5,0.4s0.6,0.4,0.6,0.7s-0.3,0.7-0.9,0.7c-0.2,0-0.4,0-0.6-0.1
	C3.2,23.4,3.1,23.3,3.2,23.2L3.2,23.2z"/>
<path class="st0" d="M7,23.3c0,0.1,0,0.2-0.1,0.2c-0.2,0.1-0.4,0.1-0.6,0.1c-0.6,0-1.2-0.4-1.2-1.1c0-0.1,0-0.1,0-0.2
	c0-0.7,0.5-1.3,1.2-1.3c0,0,0.1,0,0.1,0c0.2,0,0.3,0,0.5,0.1C7,21.1,7,21.2,7,21.3c0,0,0,0,0,0l0,0c0,0.1-0.1,0.1-0.2,0.1
	c-0.1,0-0.2-0.1-0.4,0c-0.5,0.1-0.9,0.5-0.8,1c0,0.4,0.4,0.8,0.8,0.8c0.1,0,0.3,0,0.4,0C6.9,23.1,7,23.2,7,23.3
	C7,23.3,7,23.3,7,23.3L7,23.3z"/>
<path class="st0" d="M9.6,22.8c0,0.2,0,0.4,0,0.5c0,0.1-0.1,0.1-0.1,0.1H9.4c-0.1,0-0.1-0.1-0.1-0.1v-0.3l0,0
	c-0.2,0.3-0.5,0.5-0.8,0.5c-0.4,0-0.9-0.2-0.9-1.1v-1.3c0-0.1,0-0.2,0.1-0.2c0,0,0,0,0,0h0.2C7.9,21,8,21.1,8,21.1v1.2
	c0,0.5,0.1,0.8,0.6,0.8c0.3,0,0.5-0.2,0.6-0.4c0-0.1,0-0.2,0-0.2v-1.4c0-0.1,0.1-0.1,0.1-0.1h0.2c0.1,0,0.1,0.1,0.1,0.1L9.6,22.8z"
	/>
<path class="st0" d="M10.8,22.4c-0.1,0-0.2,0.1-0.2,0.2c0,0,0,0,0,0c0.1,0.4,0.4,0.7,0.8,0.7c0.2,0,0.3,0,0.5-0.1
	c0.1,0,0.2,0,0.2,0.1c0,0,0,0,0,0l0,0c0,0.1,0,0.2-0.1,0.2c-0.2,0.1-0.4,0.1-0.7,0.1c-0.6,0-1.2-0.4-1.2-1.1c0-0.1,0-0.1,0-0.2
	c-0.1-0.7,0.4-1.2,1.1-1.3c0,0,0.1,0,0.1,0c0.6,0,1,0.4,1,1c0,0.1,0,0.1,0,0.2v0c0,0.1-0.1,0.2-0.2,0.2L10.8,22.4z M11.8,22
	c0.1,0,0.2-0.1,0.2-0.1c0,0,0,0,0,0c0-0.3-0.3-0.5-0.6-0.5c-0.3,0-0.6,0.2-0.6,0.5c0,0.1,0,0.2,0.1,0.2c0,0,0,0,0,0L11.8,22z"/>
<path class="st0" d="M13.1,19.9h0.1c0.1,0,0.2,0.1,0.2,0.2v3.3c0,0.1-0.1,0.2-0.2,0.2h-0.1c-0.1,0-0.2-0.1-0.2-0.2V20
	C13,19.9,13,19.9,13.1,19.9z"/>
<path class="st0" d="M15.6,23.5c-0.1,0-0.1-0.1-0.2-0.1v-0.2l0,0c-0.2,0.2-0.5,0.4-0.8,0.4c-0.4,0-0.7-0.3-0.7-0.6c0,0,0,0,0-0.1
	c0-0.6,0.5-0.9,1.5-0.9v0c0-0.3-0.1-0.5-0.4-0.6c0,0-0.1,0-0.1,0c-0.2,0-0.3,0-0.5,0.1c-0.1,0-0.2,0-0.2-0.1c0,0,0,0,0,0l0,0
	c0-0.1,0-0.2,0.1-0.2C14.5,21,14.7,21,15,21c0.5,0,0.9,0.3,0.9,0.8c0,0.1,0,0.1,0,0.2v0.9c0,0.1,0,0.3,0,0.4c0,0.1,0,0.2-0.1,0.2
	c0,0,0,0,0,0L15.6,23.5z M15.4,22.4c0-0.1-0.1-0.2-0.2-0.2c-0.4,0-0.9,0.1-0.9,0.5c0,0.2,0.1,0.4,0.4,0.4c0,0,0,0,0.1,0
	c0.3,0,0.5-0.2,0.6-0.4c0,0,0-0.1,0-0.1L15.4,22.4z"/>
<path class="st0" d="M17.7,23.3v-3c0-0.1,0.1-0.2,0.2-0.2h0h0.2c0.1,0,0.1,0,0.2,0.1l1,1.6c0.2,0.4,0.4,0.7,0.6,1.1l0,0
	c0-0.5-0.1-0.9-0.1-1.4v-1.3c0-0.1,0.1-0.2,0.2-0.2h0l0,0c0.1,0,0.2,0.1,0.2,0.2c0,0,0,0,0,0v3c0,0.1-0.1,0.2-0.2,0.2c0,0,0,0,0,0
	h-0.1c-0.1,0-0.1,0-0.2-0.1l-1-1.7c-0.2-0.4-0.4-0.7-0.6-1.1l0,0c0,0.4,0,0.9,0,1.4v1.3c0,0.1-0.1,0.2-0.2,0.2c0,0,0,0,0,0l0,0
	C17.8,23.5,17.7,23.4,17.7,23.3C17.7,23.3,17.7,23.3,17.7,23.3z"/>
<path class="st0" d="M22.5,23.5c-0.1,0-0.1-0.1-0.1-0.1v-0.2l0,0c-0.2,0.2-0.5,0.4-0.8,0.4c-0.4,0-0.7-0.3-0.7-0.6c0,0,0,0,0-0.1
	c0-0.6,0.5-0.9,1.5-0.9v0c0-0.3-0.2-0.5-0.4-0.6c0,0-0.1,0-0.1,0c-0.2,0-0.3,0-0.5,0.1c-0.1,0-0.2,0-0.2-0.1c0,0,0,0,0,0l0,0
	c0-0.1,0-0.1,0.1-0.2c0.2-0.1,0.5-0.2,0.7-0.1c0.8,0,0.9,0.5,0.9,1v0.9c0,0.1,0,0.3,0,0.4c0,0.1,0,0.1-0.1,0.2c0,0,0,0,0,0
	L22.5,23.5z M22.3,22.4c0-0.1-0.1-0.1-0.1-0.1c-0.4,0-0.9,0.1-0.9,0.5c0,0.2,0.1,0.4,0.4,0.4c0,0,0,0,0.1,0c0.3,0,0.5-0.2,0.6-0.4
	c0,0,0-0.1,0-0.1L22.3,22.4z M22.3,20.2l-0.4,0.5c0,0-0.1,0-0.1,0l0,0c-0.1,0-0.1-0.1-0.1-0.1c0,0,0-0.1,0-0.1L22,20
	c0,0,0.1,0,0.1,0h0.1C22.3,20,22.4,20.1,22.3,20.2C22.4,20.2,22.3,20.2,22.3,20.2L22.3,20.2z"/>
<path class="st0" d="M25.5,22.8c0,0.2,0,0.3,0,0.5c0,0.1-0.1,0.2-0.2,0.2l0,0c-0.1,0-0.2-0.1-0.2-0.2v-0.2l0,0
	c-0.2,0.3-0.5,0.5-0.8,0.5c-0.4,0-0.9-0.2-0.9-1.1v-1.3c0-0.1,0.1-0.2,0.2-0.2l0,0h0.1c0.1,0,0.2,0.1,0.2,0.2l0,0v1.2
	c0,0.5,0.1,0.8,0.5,0.8c0.3,0,0.5-0.2,0.6-0.4c0-0.1,0-0.2,0-0.2v-1.3c0-0.1,0.1-0.2,0.2-0.2l0,0h0.1c0.1,0,0.2,0.1,0.2,0.2l0,0
	L25.5,22.8z"/>
<path class="st0" d="M26.8,20.5v0.3c0,0.1,0.1,0.2,0.2,0.2l0,0h0.3c0.1,0,0.2,0.1,0.2,0.2l0,0c0,0.1-0.1,0.2-0.2,0.2l0,0H27
	c-0.1,0-0.2,0.1-0.2,0.2v1.2c0,0.3,0.1,0.5,0.3,0.5h0.1c0.1,0,0.2,0.1,0.2,0.1c0,0,0,0,0,0l0,0c0,0.1-0.1,0.2-0.1,0.2H27
	c-0.2,0-0.4-0.1-0.5-0.2c-0.1-0.2-0.2-0.4-0.2-0.6v-1.1c0-0.1-0.1-0.2-0.2-0.2h0c-0.1,0-0.2-0.1-0.2-0.2l0,0l0,0
	c0-0.1,0.1-0.2,0.2-0.2h0c0.1,0,0.2-0.1,0.2-0.2l0,0v-0.3c0-0.1,0-0.1,0.1-0.2h0.1C26.7,20.4,26.8,20.4,26.8,20.5
	C26.8,20.5,26.8,20.5,26.8,20.5z"/>
<path class="st0" d="M28.5,20.3c0,0.2-0.1,0.3-0.3,0.3c-0.2,0-0.3-0.1-0.3-0.3c0-0.1,0.1-0.3,0.3-0.3c0,0,0,0,0,0
	C28.3,20.1,28.5,20.2,28.5,20.3C28.5,20.3,28.5,20.3,28.5,20.3z M28,23.3v-2c0-0.1,0.1-0.2,0.2-0.2c0,0,0,0,0,0l0,0
	c0.1,0,0.2,0.1,0.2,0.2v2c0,0.1-0.1,0.2-0.2,0.2l0,0C28.1,23.5,28,23.4,28,23.3C28,23.3,28,23.3,28,23.3z"/>
<path class="st0" d="M30.9,23.3c0,0.1,0,0.1-0.1,0.2c-0.2,0.1-0.4,0.1-0.6,0.1c-0.7,0-1.2-0.5-1.2-1.1c0,0,0-0.1,0-0.1
	c0-0.7,0.5-1.3,1.2-1.3c0,0,0.1,0,0.1,0c0.2,0,0.3,0,0.5,0.1c0.1,0,0.1,0.1,0.1,0.2v0.1c0,0.1-0.1,0.1-0.2,0.1
	c-0.1,0-0.3-0.1-0.4-0.1c-0.5,0.1-0.9,0.5-0.8,1c0,0.4,0.4,0.8,0.8,0.8c0.1,0,0.3,0,0.4-0.1C30.8,23.1,30.9,23.1,30.9,23.3
	C30.9,23.2,30.9,23.2,30.9,23.3L30.9,23.3z"/>
<path class="st0" d="M32.9,23.5c-0.1,0-0.1-0.1-0.2-0.1v-0.2l0,0c-0.2,0.2-0.5,0.4-0.8,0.4c-0.4,0-0.7-0.3-0.8-0.7c0,0,0,0,0,0
	c0-0.6,0.5-0.9,1.5-0.9v0c0-0.3-0.1-0.5-0.4-0.6c0,0-0.1,0-0.1,0c-0.2,0-0.3,0-0.5,0.1c-0.1,0-0.2,0-0.2-0.1c0,0,0,0,0,0l0,0
	c0-0.1,0-0.2,0.1-0.2C31.8,21,32,21,32.3,21c0.5,0,0.9,0.3,0.9,0.8c0,0.1,0,0.1,0,0.2v0.9c0,0.1,0,0.3,0,0.4c0,0.1,0,0.2-0.1,0.2
	c0,0,0,0,0,0L32.9,23.5z M32.7,22.4c0-0.1-0.1-0.2-0.2-0.2c-0.4,0-0.9,0.1-0.9,0.5c0,0.2,0.1,0.4,0.4,0.4c0,0,0,0,0.1,0
	c0.3,0,0.5-0.2,0.6-0.4c0,0,0-0.1,0-0.1L32.7,22.4z"/>
<path class="st0" d="M34.3,23.3l2.2-3.4c0.1-0.1,0.2-0.1,0.2-0.1l0,0c0.2,0,0.3,0.1,0.2,0.2l-2.2,3.4c-0.1,0.1-0.2,0.1-0.2,0.1l0,0
	C34.4,23.5,34.2,23.4,34.3,23.3z"/>
<path class="st0" d="M38.3,22.6l-0.3,0.8c0,0.1-0.1,0.1-0.2,0.1l0,0c-0.1,0-0.2-0.1-0.2-0.2c0,0,0,0,0-0.1l1-3
	c0-0.1,0.1-0.1,0.2-0.1h0.2c0.1,0,0.2,0.1,0.2,0.1l1,3c0,0.1,0,0.2-0.1,0.3c0,0,0,0-0.1,0l0,0c-0.1,0-0.2-0.1-0.2-0.1l-0.3-0.8
	c0-0.1-0.1-0.1-0.2-0.1h-0.9C38.4,22.4,38.4,22.5,38.3,22.6z M39.2,22.1c0.1,0,0.2-0.1,0.2-0.2c0,0,0,0,0-0.1l-0.2-0.7
	c-0.1-0.2-0.1-0.4-0.2-0.6l0,0c0,0.2-0.1,0.4-0.2,0.6l-0.2,0.7c0,0.1,0,0.2,0.1,0.3c0,0,0,0,0.1,0L39.2,22.1z"/>
<path class="st0" d="M41.1,19.9h0.2c0.1,0,0.2,0.1,0.2,0.1c0,0,0,0,0,0v3.3c0,0.1-0.1,0.1-0.2,0.1l0,0h-0.2c-0.1,0-0.2-0.1-0.2-0.1
	c0,0,0,0,0,0V20C41,19.9,41,19.9,41.1,19.9z"/>
<path class="st0" d="M43.8,23.1L43.8,23.1c-0.2,0.3-0.5,0.4-0.8,0.4c-0.6,0-1.1-0.6-1.1-1.2c0,0,0,0,0-0.1c-0.1-0.6,0.4-1.2,1-1.3
	c0,0,0.1,0,0.1,0c0.3,0,0.6,0.1,0.8,0.4l0,0v-0.3c0-0.1,0-0.1,0.1-0.1l0,0h0.1c0.1,0,0.1,0,0.1,0.1c0,0,0,0,0,0c0,0.2,0,0.4,0,0.6
	v2.7c0,0.1,0,0.1-0.1,0.1l0,0h-0.2c-0.1,0-0.1,0-0.1-0.1c0,0,0,0,0,0V23.1z M43.8,22c0-0.1,0-0.1,0-0.2c-0.1-0.3-0.3-0.5-0.6-0.5
	c-0.5,0-0.7,0.4-0.7,1s0.2,0.9,0.7,0.9c0.3,0,0.6-0.2,0.6-0.5c0-0.1,0-0.1,0-0.2L43.8,22z"/>
<path class="st0" d="M47,22.8c0,0.2,0,0.3,0,0.5c0,0.1-0.1,0.2-0.2,0.2c0,0,0,0,0,0l0,0c-0.1,0-0.2-0.1-0.2-0.2v-0.2l0,0
	c-0.2,0.3-0.5,0.5-0.8,0.5c-0.4,0-0.8-0.2-0.8-1.1v-1.2c0-0.1,0.1-0.2,0.2-0.2c0,0,0,0,0,0h0.1c0.1,0,0.2,0.1,0.2,0.2c0,0,0,0,0,0
	v1.2c0,0.5,0.2,0.8,0.5,0.8c0.3,0,0.5-0.2,0.6-0.4c0-0.1,0-0.2,0-0.2v-1.3c0-0.1,0.1-0.2,0.2-0.2h0.1c0.1,0,0.2,0.1,0.2,0.2
	c0,0,0,0,0,0L47,22.8z"/>
<path class="st0" d="M48.3,20.3c0,0.1-0.1,0.3-0.3,0.3c0,0,0,0,0,0c-0.1,0-0.3-0.1-0.3-0.2c0,0,0,0,0,0c0-0.1,0.1-0.3,0.3-0.3
	c0,0,0,0,0,0C48.2,20.1,48.3,20.2,48.3,20.3C48.3,20.3,48.3,20.3,48.3,20.3z M47.8,23.3v-2.1c0-0.1,0.1-0.2,0.2-0.2l0,0h0.1
	c0.1,0,0.2,0.1,0.2,0.2l0,0v2.1c0,0.1-0.1,0.2-0.2,0.2l0,0H48C47.9,23.5,47.8,23.5,47.8,23.3C47.8,23.3,47.8,23.3,47.8,23.3
	L47.8,23.3z"/>
<path class="st0" d="M49.2,19.9L49.2,19.9c0.1,0,0.2,0.1,0.2,0.2c0,0,0,0,0,0v3.2c0,0.1-0.1,0.2-0.2,0.2l0,0c-0.1,0-0.2-0.1-0.2-0.2
	c0,0,0,0,0,0v-3.2C49,20,49.1,19.9,49.2,19.9C49.2,19.9,49.2,19.9,49.2,19.9z"/>
<path class="st0" d="M50.6,22.4c-0.1,0-0.2,0.1-0.2,0.1c0,0,0,0,0,0c0.1,0.4,0.4,0.7,0.8,0.7c0.2,0,0.3,0,0.5-0.1
	c0.1,0,0.2,0,0.2,0.1c0,0,0,0,0,0l0,0c0,0.1,0,0.2-0.1,0.2c0,0,0,0,0,0c-0.2,0.1-0.4,0.1-0.7,0.1c-0.6,0-1.2-0.4-1.2-1.1
	c0-0.1,0-0.1,0-0.2c-0.1-0.7,0.4-1.2,1.1-1.3c0,0,0.1,0,0.1,0c0.6,0,1,0.4,1,1c0,0.1,0,0.1,0,0.2v0c0,0.1-0.1,0.2-0.2,0.2L50.6,22.4
	z M51.6,22c0.1,0,0.2-0.1,0.2-0.2c0,0,0,0,0,0c0-0.3-0.3-0.5-0.6-0.5c-0.3,0-0.6,0.2-0.6,0.5c0,0.1,0,0.2,0.1,0.2c0,0,0,0,0.1,0
	L51.6,22z"/>
<path class="st0" d="M52.7,21.8c0-0.2,0-0.4,0-0.6c0-0.1,0-0.2,0.1-0.2c0,0,0,0,0,0l0,0c0.1,0,0.2,0.1,0.2,0.2v0.3l0,0
	c0.1-0.3,0.4-0.5,0.7-0.5h0.1v0.4h-0.1c-0.3,0-0.6,0.3-0.6,0.6c0,0.1,0,0.1,0,0.2v1.1c0,0.1-0.1,0.2-0.2,0.2h-0.1
	c-0.1,0-0.2-0.1-0.2-0.2c0,0,0,0,0,0L52.7,21.8z"/>
<path class="st0" d="M57.4,19.9c0.1,0,0.2,0.1,0.2,0.2v0v2.8c0,0.1,0,0.3,0,0.4c0,0.1-0.1,0.2-0.2,0.2l0,0c-0.1,0-0.2-0.1-0.2-0.2
	v-0.2l0,0c-0.2,0.3-0.5,0.5-0.8,0.5c-0.6,0-1.1-0.5-1.1-1.2c0,0,0-0.1,0-0.1c-0.1-0.6,0.4-1.2,1.1-1.3c0,0,0,0,0.1,0
	c0.3,0,0.6,0.1,0.7,0.4l0,0v-1.3C57.2,20,57.2,19.9,57.4,19.9L57.4,19.9L57.4,19.9z M57.2,22c0-0.1,0-0.1,0-0.2
	c-0.1-0.3-0.3-0.5-0.7-0.5c-0.5,0-0.7,0.4-0.7,1s0.2,0.9,0.7,0.9c0.3,0,0.6-0.2,0.7-0.5c0-0.1,0-0.1,0-0.2V22z"/>
<path class="st0" d="M58.8,22.4c-0.1,0-0.2,0.1-0.2,0.1c0,0,0,0,0,0c0.1,0.4,0.4,0.7,0.8,0.7c0.2,0,0.3,0,0.5-0.1
	c0.1,0,0.2,0,0.2,0.1c0,0,0,0,0,0l0,0c0,0.1,0,0.2-0.1,0.2c-0.2,0.1-0.4,0.1-0.7,0.1c-0.6,0-1.2-0.4-1.2-1.1c0-0.1,0-0.1,0-0.2
	c-0.1-0.7,0.4-1.2,1.1-1.3c0,0,0.1,0,0.1,0c0.6,0,1,0.4,1,1c0,0.1,0,0.1,0,0.2v0c0,0.1-0.1,0.2-0.2,0.2L58.8,22.4z M59.8,22
	c0.1,0,0.2-0.1,0.2-0.2c0,0,0,0,0,0c0-0.3-0.3-0.5-0.6-0.5c-0.3,0-0.6,0.2-0.6,0.5c0,0.1,0,0.2,0.1,0.2c0,0,0,0,0.1,0L59.8,22z"/>
<path class="st0" d="M63.6,21.9h-1c-0.1,0-0.1,0.1-0.1,0.1c0,0,0,0,0,0v1c0,0.1,0.1,0.1,0.1,0.1h1.2c0.1,0,0.1,0.1,0.1,0.1
	c0,0,0,0,0,0v0.1c0,0.1-0.1,0.1-0.2,0.1l0,0h-1.7c-0.1,0-0.2-0.1-0.2-0.1c0,0,0,0,0,0v-3.2c0-0.1,0.1-0.1,0.2-0.1l0,0h1.6
	c0.1,0,0.2,0.1,0.2,0.1c0,0,0,0,0,0v0.1c0,0.1-0.1,0.1-0.2,0.1l0,0h-1.1c-0.1,0-0.1,0.1-0.1,0.1v0.8c0,0.1,0.1,0.1,0.1,0.1h1
	c0.1,0,0.2,0.1,0.2,0.1c0,0,0,0,0,0v0.1C63.7,21.8,63.7,21.9,63.6,21.9z"/>
<path class="st0" d="M64.5,21.7c0-0.2,0-0.4,0-0.5c0-0.1,0.1-0.2,0.2-0.2h0.1c0.1,0,0.1,0.1,0.2,0.1v0.3l0,0
	c0.2-0.3,0.5-0.5,0.8-0.5c0.3,0,0.6,0.2,0.7,0.5l0,0c0.1-0.1,0.2-0.2,0.3-0.3C66.8,21,67,21,67.2,21c0.3,0,0.8,0.2,0.8,1.1v1.3
	c0,0.1-0.1,0.1-0.1,0.1h-0.2c-0.1,0-0.1-0.1-0.1-0.1v-1.3c0-0.5-0.2-0.8-0.5-0.8c-0.2,0-0.5,0.2-0.5,0.4c0,0.1,0,0.1,0,0.2v1.4
	c0,0.1-0.1,0.1-0.2,0.1l0,0h-0.1c-0.1,0-0.2-0.1-0.2-0.1c0,0,0,0,0,0V22c0-0.4-0.2-0.7-0.5-0.7c-0.3,0-0.5,0.2-0.6,0.5
	c0,0.1,0,0.1,0,0.2v1.3c0,0.1-0.1,0.1-0.2,0.1l0,0h-0.1c-0.1,0-0.2-0.1-0.2-0.1c0,0,0,0,0,0L64.5,21.7z"/>
<path class="st0" d="M68.9,23.5c-0.1,0-0.2-0.1-0.2-0.2c0-0.1,0-0.3,0-0.4v-2.8c0-0.1,0.1-0.2,0.2-0.2l0,0c0.1,0,0.2,0.1,0.2,0.2
	v1.4l0,0c0.2-0.3,0.5-0.5,0.8-0.5c0.6,0.1,1.1,0.6,1,1.2c0,0,0,0,0,0c0.1,0.6-0.4,1.2-1,1.3c0,0-0.1,0-0.1,0c-0.3,0-0.7-0.2-0.8-0.5
	l0,0v0.2C69,23.4,68.9,23.5,68.9,23.5L68.9,23.5z M69.2,22.5c0,0.1,0,0.1,0,0.2c0.1,0.3,0.4,0.5,0.7,0.5c0.5,0,0.8-0.4,0.8-1
	s-0.3-0.9-0.7-0.9c-0.3,0-0.6,0.2-0.7,0.5c0,0.1,0,0.1,0,0.2V22.5z"/>
<path class="st0" d="M73.2,23.5c-0.1,0-0.1-0.1-0.2-0.1v-0.2l0,0c-0.2,0.2-0.5,0.4-0.8,0.4c-0.4,0-0.7-0.3-0.7-0.6c0,0,0,0,0-0.1
	c0-0.6,0.5-0.9,1.5-0.9v0c0-0.3-0.2-0.5-0.4-0.6c0,0-0.1,0-0.1,0c-0.2,0-0.3,0-0.5,0.1c-0.1,0-0.2,0-0.2-0.1c0,0,0,0,0,0l0,0
	c0-0.1,0-0.2,0.1-0.2C72,21,72.2,21,72.5,21c0.8,0,0.9,0.5,0.9,1v0.9c0,0.1,0,0.3,0,0.4c0,0.1,0,0.2-0.1,0.2c0,0,0,0,0,0L73.2,23.5z
	 M72.9,22.4c0-0.1-0.1-0.2-0.2-0.2l0,0c-0.4,0-0.9,0.1-0.9,0.5c0,0.2,0.1,0.4,0.4,0.4c0,0,0,0,0.1,0c0.3,0,0.5-0.2,0.6-0.4
	c0,0,0-0.1,0-0.1L72.9,22.4z"/>
<path class="st0" d="M74.1,21.8c0-0.2,0-0.4,0-0.6c0-0.1,0.1-0.2,0.2-0.2c0,0,0,0,0,0l0,0c0.1,0,0.2,0.1,0.2,0.2c0,0,0,0,0,0v0.3
	l0,0c0.1-0.3,0.4-0.5,0.7-0.5h0.1v0.4h-0.2c-0.3,0-0.6,0.3-0.6,0.6c0,0.1,0,0.1,0,0.2v1.1c0,0.1-0.1,0.2-0.2,0.2h-0.1
	c-0.1,0-0.2-0.1-0.2-0.2c0,0,0,0,0,0L74.1,21.8z"/>
<path class="st0" d="M77.4,23.3c0,0.1,0,0.2-0.1,0.2c-0.2,0.1-0.4,0.1-0.6,0.1c-0.7,0-1.2-0.5-1.2-1.1c0,0,0-0.1,0-0.1
	c0-0.7,0.5-1.3,1.2-1.3c0,0,0.1,0,0.1,0c0.2,0,0.3,0,0.5,0.1c0.1,0,0.1,0.1,0.1,0.2c0,0,0,0,0,0l0,0c0,0.1-0.1,0.1-0.2,0.1
	c-0.1,0-0.2-0.1-0.4,0c-0.5,0.1-0.9,0.5-0.8,1c0,0.4,0.4,0.8,0.8,0.8c0.1,0,0.3,0,0.4,0C77.3,23.1,77.4,23.2,77.4,23.3L77.4,23.3z"
	/>
<path class="st0" d="M79.5,23.5c-0.1,0-0.1-0.1-0.2-0.1v-0.2l0,0c-0.2,0.2-0.5,0.4-0.8,0.4c-0.4,0-0.7-0.3-0.7-0.6c0,0,0,0,0-0.1
	c0-0.6,0.5-0.9,1.5-0.9v0c0-0.3-0.1-0.5-0.4-0.6c0,0-0.1,0-0.1,0c-0.2,0-0.3,0-0.5,0.1c-0.1,0-0.2,0-0.2-0.1c0,0,0,0,0,0l0,0
	c0-0.1,0-0.2,0.1-0.2c0.2-0.1,0.5-0.2,0.7-0.1c0.5,0,0.9,0.3,0.9,0.8c0,0.1,0,0.1,0,0.2v0.9c0,0.1,0,0.3,0,0.4c0,0.1,0,0.2-0.1,0.2
	c0,0,0,0,0,0L79.5,23.5z M79.3,22.4c0-0.1-0.1-0.2-0.2-0.2l0,0c-0.4,0-0.9,0.1-0.9,0.5c0,0.2,0.1,0.4,0.4,0.4c0,0,0,0,0.1,0
	c0.3,0,0.5-0.2,0.6-0.4c0,0,0-0.1,0-0.1L79.3,22.4z"/>
<path class="st0" d="M82.2,23.3c0,0.1,0,0.2-0.1,0.2c-0.2,0.1-0.4,0.1-0.6,0.1c-0.7,0-1.2-0.5-1.2-1.1c0,0,0-0.1,0-0.1
	c0-0.7,0.5-1.3,1.2-1.3c0,0,0.1,0,0.1,0c0.2,0,0.3,0,0.5,0.1c0.1,0,0.1,0.1,0.1,0.2c0,0,0,0,0,0l0,0c0,0.1-0.1,0.1-0.2,0.1
	c-0.1,0-0.2-0.1-0.4,0c-0.5,0.1-0.9,0.5-0.8,1c0,0.4,0.4,0.8,0.8,0.8c0.1,0,0.3,0,0.4,0C82.1,23.1,82.2,23.2,82.2,23.3
	C82.2,23.3,82.2,23.3,82.2,23.3L82.2,23.3z"/>
<path class="st0" d="M83.2,20.3c0,0.1-0.1,0.3-0.2,0.3c0,0,0,0,0,0c-0.1,0-0.3-0.1-0.3-0.2c0,0,0,0,0,0c0-0.2,0.1-0.3,0.2-0.3
	c0.2,0,0.3,0.1,0.3,0.2C83.2,20.3,83.2,20.3,83.2,20.3z M82.7,23.3v-2.1c0-0.1,0.1-0.2,0.2-0.2l0,0H83c0.1,0,0.2,0.1,0.2,0.2l0,0
	v2.1c0,0.1-0.1,0.2-0.2,0.2l0,0h-0.1C82.8,23.5,82.7,23.4,82.7,23.3L82.7,23.3L82.7,23.3z"/>
<path class="st0" d="M86.2,22.2c0.1,0.7-0.4,1.3-1.1,1.3c0,0-0.1,0-0.1,0c-0.6,0-1.2-0.5-1.2-1.2c0,0,0-0.1,0-0.1
	c0-0.7,0.5-1.2,1.1-1.3c0,0,0.1,0,0.1,0c0.6,0,1.2,0.5,1.2,1.1C86.2,22.2,86.2,22.2,86.2,22.2z M84.2,22.2c0,0.5,0.3,1,0.8,1
	s0.8-0.4,0.8-1s-0.2-1-0.7-1S84.2,21.8,84.2,22.2L84.2,22.2z"/>
<path class="st0" d="M86.7,21.7c0-0.2,0-0.4,0-0.5c0-0.1,0.1-0.2,0.2-0.2H87c0.1,0,0.2,0.1,0.2,0.1v0.3l0,0c0.2-0.3,0.5-0.5,0.8-0.5
	c0.3,0,0.9,0.2,0.9,1v1.3c0,0.1-0.1,0.2-0.2,0.2l0,0h-0.1c-0.1,0-0.2-0.1-0.2-0.2c0,0,0,0,0,0v-1.2c0-0.4-0.2-0.7-0.6-0.7
	c-0.3,0-0.5,0.2-0.6,0.5c0,0.1,0,0.1,0,0.2v1.3c0,0.1-0.1,0.2-0.2,0.2l0,0h-0.1c-0.1,0-0.2-0.1-0.2-0.2c0,0,0,0,0,0L86.7,21.7z"/>
<path class="st0" d="M90,22.4c-0.1,0-0.2,0.1-0.2,0.2c0,0,0,0,0,0c0.1,0.4,0.4,0.7,0.8,0.7c0.2,0,0.3,0,0.5-0.1c0.1,0,0.2,0,0.2,0.1
	c0,0,0,0,0,0l0,0c0,0.1,0,0.2-0.1,0.2c-0.2,0.1-0.4,0.1-0.7,0.1c-0.6,0-1.2-0.4-1.2-1.1c0-0.1,0-0.1,0-0.2c-0.1-0.7,0.4-1.2,1.1-1.3
	c0,0,0.1,0,0.1,0c0.6,0,1,0.4,1,1c0,0.1,0,0.1,0,0.2v0c0,0.1-0.1,0.2-0.2,0.2l0,0L90,22.4z M91,22c0.1,0,0.2-0.1,0.2-0.2
	c0,0,0,0,0,0c0-0.3-0.3-0.5-0.6-0.5c-0.3,0-0.6,0.2-0.6,0.5c0,0.1,0,0.2,0.1,0.2c0,0,0,0,0.1,0L91,22z"/>
<path class="st0" d="M92,23.2c0-0.1,0.1-0.1,0.2-0.1c0.1,0.1,0.3,0.1,0.4,0.1c0.3,0,0.5-0.2,0.5-0.4s-0.1-0.3-0.5-0.5S92,22,92,21.7
	c0-0.4,0.4-0.7,0.8-0.7c0,0,0,0,0.1,0c0.2,0,0.3,0,0.5,0.1c0.1,0,0.1,0.1,0.1,0.2l0,0c0,0.1-0.1,0.1-0.2,0.1c-0.1,0-0.2-0.1-0.3-0.1
	c-0.3,0-0.4,0.1-0.4,0.3s0.1,0.3,0.5,0.4s0.6,0.4,0.6,0.7s-0.3,0.7-0.9,0.7c-0.2,0-0.4,0-0.6-0.1C92,23.4,91.9,23.3,92,23.2L92,23.2
	z"/>
</svg>
