<svg xmlns="http://www.w3.org/2000/svg" viewBox="0 0 841.89 595.28"><defs><style>.cls-1{fill:#0596b3;}</style></defs><g id="Logo"><path class="cls-1" d="M750.71,217c.21,3.29,1.23,5,3,5l.18-.08.18-.09,14.3-.24a2.38,2.38,0,0,0,2.22-1.09,7.69,7.69,0,0,0,.71-3.82c0-.11,0-1.11-.07-3s-.06-3.73,0-5.49a546.85,546.85,0,0,1,4.41-64.14q.86-6.28.87-7.56a2.31,2.31,0,0,0-1.12-1.79,4.2,4.2,0,0,0-2.57-.87l-21.53,0a6.71,6.71,0,0,0-3.94.86,3.23,3.23,0,0,0-1.25,2.76v.42l4.53,77.47a11,11,0,0,1,.08,1.61"/><path class="cls-1" d="M750.37,247.24q4.3.9,7.21,1.62a70.41,70.41,0,0,1-9.11,3.46q-5,1.56-5.06,2.77,0,1.87,2,4.57c1.32,1.8,2.48,2.7,3.45,2.71q.64,0,4.23-3.34t6.56-5.8c-.34,2.67-.81,5.42-1.41,8.27s-.9,4.41-.9,4.68a1.5,1.5,0,0,0,1,1.39,7,7,0,0,0,3,.51,17.36,17.36,0,0,0,4.83-.47c1-.33,1.54-.85,1.55-1.57a22.11,22.11,0,0,0-.73-3.16q-.74-2.72-2.89-10a85,85,0,0,1,7.42,5.72q3.82,3.27,4.53,3.27c.9,0,2-.9,3.17-2.73A9,9,0,0,0,781,254.5c0-1-1.92-2-5.79-2.93q-5.12-1.24-8.71-2.34a96.11,96.11,0,0,1,9.45-3.12q4.81-1.38,4.82-2.6a8.31,8.31,0,0,0-2-4.64q-2-2.73-3.48-2.74c-.39,0-1.77,1.07-4.12,3.21s-4.48,4-6.4,5.58a72.11,72.11,0,0,1,1.63-8.07c.7-2.71,1-4.15,1.06-4.32a1.69,1.69,0,0,0-1.2-1.58,11.22,11.22,0,0,0-4-.53,11.64,11.64,0,0,0-4,.48,1.69,1.69,0,0,0-1.26,1.56q0,.25,1,4.38t1.63,8.19a66.47,66.47,0,0,1-7.29-5.26q-3.63-3-4.23-3c-.9,0-2,.89-3.17,2.68a8.73,8.73,0,0,0-1.84,4.57q0,1.73,7.19,3.24"/><polygon class="cls-1" points="475.44 262.26 473.9 253.88 466.65 252.92 465.87 251.84 463.33 190.86 466.24 190.42 493.25 250.41 495.4 259.03 496 262.41 513.7 262.54 519.15 262.57 520 249.55 512.72 247.46 513.67 158.42 514.24 150.28 521.55 149.29 522.35 142.31 522.78 135.45 518.19 135.42 512.99 135.38 500.86 135.29 484.39 135.17 486.02 148.45 494.56 149.32 495.1 214.43 483.82 189.66 469.15 152.05 475.74 149.08 475.92 141.4 475.11 135.11 469.16 135.07 455.54 134.97 440.19 134.86 439.83 149.63 448.48 151.09 449.04 250.91 439.38 250.26 439.17 261.88 438.8 262 475.44 262.26"/><path class="cls-1" d="M574,178.76,579.73,202l-10-.07Zm-12.84,83.61,10.27.66-.14-13.73-10-.65,6.54-35.91,14.59.11,9.19,37.29-6.34,2.52.29,10.47,41.35.29L624,256l.41-5.35-8.92-.18-25.59-96.27-1-3.73,6.34-1.93-1.38-14-8.31,2.15-11.88-.78-14.85-1.62-.74,16.29,6.92.75-15.83,74.1-7.11,23.1-10.43,2.37,1.77,11.88q13.25.09,27.74-.39"/><path class="cls-1" d="M654.15,224l-13.27,2.23-3.36,32.2,15.56,5.23,3.88-5.55,13.58,5.68,4.83,0,15.1.11q39.49.29,39.76-31.48,9.57-36.45-33.1-41.41l-1,.46-.69-.48-11-.54q-14.5,2.12-19.34-13.05-5.13-23.3,19.76-23.94l18.05,3.5-.5,16.17q5.07,1,16.07,2.67L723,161.69l.17-20.82-10-6.94-4.83,0-5.1,3.46-4.93-3.53-15-.11q-44.94-.32-45.25,37.84-.86,30,34,37.23l21.29,2.44q20.18,4.8,15.09,17.83-.69,8.37-17.35,16.05l-17.94-1.64-14.55-7.67q1.36-.33-4.48-11.78"/><path class="cls-1" d="M588.68,356.9l-7.33,34-10.83,7.37q-16.21-.12-28.19-35.56Q549,306,571.26,306.17l13.51,13.6ZM521.58,341l-.16,18.61q13.67,56.52,35.09,56.68l21.17.15q35.66-15.81,35.93-49.77l.26-31.41q.3-37.33-42.07-50.56Q522,291.87,521.58,341"/><path class="cls-1" d="M508.42,314.19q6.68-19.53,7.87-24.57L504,285.92l-2.32,2.63-13.79-2.74q-44.52,1.6-45.63,44.49l-.67,19.34.58,7.82,3.28,21.65,3.11,10.23,7.4,18,14.63,9.6,30.57.33,10-9.78q6-12.45.14-16.22l-8.82-1-6.32,6.44-6,2.24-10.47-2.47q-25-40.8-5.82-86.68l9.11-4.62,14.31,1.3-.68,5.64Z"/><path class="cls-1" d="M631,379.11l3.11,10.23,7.4,18,14.63,9.59,30.56.34,10-9.78q6-12.45.14-16.22l-8.82-1-6.32,6.44-6,2.24-10.46-2.48q-25-40.79-5.82-86.67l9.11-4.62,14.31,1.3-.68,5.65L694,314.19q6.69-19.53,7.88-24.57l-12.25-3.69-2.32,2.62-13.79-2.74q-44.52,1.6-45.63,44.49l-.67,19.34.57,7.82Z"/><path class="cls-1" d="M755.06,333.53l5.73,23.25-10-.07Zm-24.81,46.64-7.12,23.1-10.42,2.37,1.77,11.88q13.24.09,27.74-.38l10.27.65-.14-13.73-10-.65,6.55-35.9,14.59.1,9.18,37.3-6.33,2.51.29,10.47,41.35.3L805,410.72l.42-5.35-8.91-.17L771,308.92l-1-3.73,6.33-1.93-1.38-14-8.31,2.15-11.88-.78L739.9,289l-.74,16.28,6.92.75Z"/><polygon class="cls-1" points="490.67 120.64 505.39 113.61 501.25 106.45 490.22 110.8 476.12 106.28 459.35 108.12 459.25 120.42 475.51 117.09 490.67 120.64"/><polygon class="cls-1" points="706.43 477.96 706.95 478.33 707.5 478.33 708.6 477.61 708.06 476.52 706.96 476.51 706.43 477.96"/><path class="cls-1" d="M717.34,458.34h-1.71l0,2.38-.2,3.82.09-.62q5.12-2.51,1.84-5.57"/><path class="cls-1" d="M518.22,456.92h-1.7l0,2.38-.21,3.81.1-.61q5.11-2.5,1.83-5.57"/><path class="cls-1" d="M701.79,458.23h-1.71l0,2.38-.2,3.82.09-.62q5.12-2.51,1.84-5.57"/><polygon class="cls-1" points="721.97 478.07 722.5 478.44 723.04 478.44 724.14 477.72 723.61 476.63 722.51 476.62 721.97 478.07"/><path class="cls-1" d="M635,457.76h-1.53l0,2.25-.63,12.19,0,.42,1,0c2.08,0,3.13-2.54,3.18-7.65v-1.37q-.33-5.86-2-5.87"/><polygon class="cls-1" points="522.86 476.65 523.38 477.02 523.93 477.03 525.03 476.3 524.5 475.21 523.4 475.21 522.86 476.65"/><polygon class="cls-1" points="551.69 464.56 553.39 464.58 552.41 461.08 551.69 464.56"/><polygon class="cls-1" points="790.26 466.26 791.96 466.27 790.98 462.78 790.26 466.26"/><polygon class="cls-1" points="461.28 463.92 462.97 463.93 461.99 460.44 461.28 463.92"/><path class="cls-1" d="M480.79,464.62l-.33,6.48,0,.42,1.05.05q6.38-4-.7-6.95"/><path class="cls-1" d="M793,475.46l-.05-1.57,1.08-.38-1.57-5.61-2.48,0-1.1,5.4,1.69.1,0,2.06-1.74-.09c-1.65,0-3.22.06-4.72,0l-.3-1.79,1.77-.35,1.21-3.47,2.68-11.15-1.18-.11.12-2.45,2.53.25,2,.12,1.41-.32.23,2.1-1.07.29.16.56L798,473.56l1.51,0-.06.81.49,1.12-7-.05m-13.84-.09h-.53l-6.67-.05h-1l-5.83,0-.09-1.22,1.87-.55.25-15.86a5.61,5.61,0,0,1-2.71-.3l0-1.19,8.72.06v0h4.48l1.09.91-.09,3.52-1.77-.09-.25-.82-.18-.38-.61-.48-.69-.32-1.14-.27-1.13-.15-1.94-.12-.11,5.65,0,1.29,1.86,0,.58-.12.33.13h.22l-.22-.23.73-.73.13-.72,1.35.08,0,1.61v3.11l-1.5.06-.2-.68-.17-.26-.5-.36-.59-.23-.68-.13h-1.34l0,6.83,2.58,0,1.14-.13.42.53-.06-.58,2.09-1,.2-.39.26-.82,1.76-.06Zm-18.92-18.22-.13,1-1.24.15-.1,1.22L758.57,473l1.24.32-.14,2h-.93l-3,0-.1-.51-.37-1.3-4.6-9-.49.06.44,9.17.13.17,1.23.14.27,1.26-6.23,0,.06,0,0-1.75,1.64.1-.11-15-1.48-.22.06-2.22,2.61,0,2.32,0h1l.14.94,0,1.15-1.12.45,2.5,5.65,1.92,3.74-.1-9.79-1.45-.14-.28-2,2.8,0h3.72Zm-25.74,17.9,0-1.58,1.07-.38-1.57-5.6-2.48,0-1.1,5.4,1.7.1,0,2.06-1.75-.1c-1.64.05-3.21.06-4.72.05l-.29-1.78,1.77-.36,1.2-3.47L731,458.23l-1.18-.11.13-2.45,2.52.24,2,.13,1.42-.33.23,2.1-1.08.29.17.56,4.36,14.48,1.52,0-.07.8.49,1.13-7-.05m-12.39,5.17a5.78,5.78,0,0,1-3.17-1,3.76,3.76,0,0,1-1.3-1.11,9.34,9.34,0,0,1-1.13-2.35l.52-2,.11-5.88-1.59-1.1-.47,6.25.13,0-.21,1.82-4.23,0-.84-.58c0-.86.51-1.27,1.53-1.25l.62-13.54v-2.25l-2.23-.18c-.47-1-.08-1.53,1.15-1.6l5.24,0c4.64,1,6,3.56,4,7.77l-1.82,1.51-.35.1h.16c.88,0,1.65,1.32,2.31,3.93l-1.41,6.46,1.26,1.62,1.58-1.39,2.11,0c.75,0,1.41.68,2,2a3.87,3.87,0,0,1-4,2.68m-15.54-.11a6,6,0,0,1-3.18-1A3.9,3.9,0,0,1,702,478a9.34,9.34,0,0,1-1.13-2.35l.52-2,.11-5.87L700,466.7l-.47,6.24.13,0-.21,1.82-4.23,0-.84-.59c0-.85.51-1.26,1.53-1.24l.62-13.54v-2.25l-2.23-.18c-.47-1-.08-1.52,1.15-1.6h5.24q7,1.44,4,7.76l-1.83,1.5-.35.11h.16q1.32,0,2.31,3.93l-1.41,6.46,1.26,1.62,1.59-1.39,2.1,0c.76,0,1.41.68,2,2a3.87,3.87,0,0,1-4,2.68m-17-5.38H689l-6.68-.05h-1l-5.83-.05-.09-1.22,1.88-.55.25-15.86a5.48,5.48,0,0,1-2.71-.3l0-1.19,8.71.06v0H688l1.08.92L689,460l-1.77-.08-.24-.83-.19-.38-.61-.48-.69-.32-1.13-.27-1.14-.15-1.94-.12-.1,5.65,0,1.3h1.87l.57-.12.34.13h.21l-.21-.23.72-.73.13-.72,1.35.08v4.72l-1.49.07-.21-.69-.16-.26-.51-.35-.58-.24-.68-.13h-1.35l0,6.82,2.59.05,1.14-.13.41.53-.06-.58,2.1-1,.19-.39.26-.82,1.77-.06ZM673.2,459.88l-1.79-.08-.25-.82-.18-.39-.61-.48-.69-.32-1.11-.27-.93,0-.07,8.26-.05,2,0,5.34,1.36.09v.15l1.25.21-.09,1.09-8.71-.06v-1.19c.23-.08.42-.13.63-.19V473h.43a10.41,10.41,0,0,1,1.39-.26l.12-15.44-.65,0-1.14.13-1.12.25-.7.31-.61.47-.2.38-.25.82-1.79.06v-4.39H658l4.25,0,3.79,0,6.67.05h.53ZM653,456.78l-2,.08-.28,14.55.2-7.26-.07,8.73,1.54.36-.25,1.22H651l-5.5,0-.11-1.22,1.79-.55.25-15.86a5.12,5.12,0,0,1-2.56-.3l0-1.19,8.23.06Zm80.52-13,4,2.19-3.24,3.28-2.35-.51Zm-93.72,24.9-.54,1.54L638,472.91l-2.44,1.41-6.86,0-.83-.59c0-.85.5-1.27,1.52-1.25l.62-13.53v-2.26l-2.22-.17c-.47-1-.09-1.53,1.14-1.6l5.25,0q6.18,0,6.12,8.18l0,2.25.1.14ZM623,474.25h-.52l-6.68-.05h-1l-5.83,0-.09-1.22,1.88-.55.25-15.86a5.78,5.78,0,0,1-2.72-.3l0-1.19,8.71.06v0h4.49l1.08.92-.09,3.52-1.77-.09-.24-.82-.19-.39-.61-.47-.69-.32-1.13-.27-1.14-.15-1.94-.12-.1,5.65,0,1.29,1.86,0,.58-.12.34.12h.22l-.22-.24.72-.73.13-.71,1.35.08V467l-1.49.06-.21-.68-.16-.27-.51-.35-.58-.23-.68-.13h-1.35l0,6.83,2.59.05,1.14-.14.41.53,0-.58,2.09-1,.19-.38.26-.82,1.77-.06Zm-24.85-.17-.55-1.84L599,472l-2.51-9.59H596l-1.31,8.84.47.15,1.45.69-.44,1.81c-1.62.1-3.53.19-5.7.28l-.87-1.76,1.5-.39-2.24-8.55-.3-1H588l-.1.45-1.53,9,1.3.12v2l-5.53,0,.1-1.82,1.2-.23,3-13.8-1.66-.66-.22-1.77,3.35-.11,2.7-.28h0v0l.33.45.14.45,0,0v.49l-1,.95,2.55,8.47,1.74-8.07-1.32-.68.16-1.74,2.74,0,2.59-.44v.45l.5.5,0,1.08-1.07.36,4,14,1.85.1.16,1,0,1.44-6,0m-43.75-.32,0-1.57,1.08-.38-1.57-5.61h-2.48l-1.1,5.39,1.7.1,0,2.07-1.74-.1c-1.64,0-3.22.06-4.72.05l-.3-1.79,1.77-.35,1.21-3.47L550.88,457l-1.18-.12.12-2.44,2.53.24,2,.12,1.41-.32.24,2.1-1.08.29.16.56,4.37,14.48,1.52,0-.07.8.49,1.12-7-.05M540.6,455.58l-.13,1.05-1.25.14-.09,1.23L539,471.39l1.24.31-.14,2h-.93l-3,0-.1-.5-.37-1.3-4.6-9-.5.06L531,472l.13.16,1.23.15.27,1.26-6.23,0,.06,0,0-1.75,1.64.1-.11-15-1.47-.22.06-2.22,2.61,0h3.32l.14.95,0,1.15-1.12.45,2.5,5.65,1.92,3.73-.1-9.79-1.45-.13-.28-2,2.8,0,2.06,0h1.66ZM523,478.81a5.92,5.92,0,0,1-3.17-1,4,4,0,0,1-1.31-1.11,9.81,9.81,0,0,1-1.13-2.36l.53-2,.11-5.88-1.59-1.1-.47,6.25.12,0-.2,1.82-4.24,0-.83-.58c0-.86.5-1.27,1.52-1.25l.62-13.53,0-2.26-2.23-.17c-.47-1-.09-1.53,1.15-1.61h5.24c4.63,1,6,3.55,4,7.76l-1.82,1.51-.36.1h.16q1.33,0,2.31,3.94l-1.4,6.46,1.25,1.62,1.59-1.4,2.1,0c.76,0,1.42.68,2,2a3.89,3.89,0,0,1-4,2.69m-17-5.39h-.53l-6.67,0H497.7l-5.83,0-.09-1.23,1.87-.54.25-15.87a5.6,5.6,0,0,1-2.71-.29l0-1.19,8.72.06v0h4.48l1.09.92-.1,3.51-1.76-.08-.25-.82-.19-.39-.6-.48-.69-.31-1.14-.28-1.13-.14-1.94-.13-.11,5.66,0,1.29h1.87l.58-.12.33.13h.22l-.21-.23.72-.73.13-.71,1.35.08,0,1.61v3.11l-1.5.06-.2-.69-.17-.26-.5-.35-.59-.23-.67-.13h-1.35l-.05,6.82,2.59.05,1.13-.13.42.53-.06-.58,2.09-1,.19-.38.27-.82L506,469Zm-18.87-3.56-1.53,2-2.43,1.42-6.87,0-.83-.59c0-.85.5-1.26,1.52-1.25l.62-13.53,0-2.26-2.23-.17c-.47-1-.09-1.53,1.15-1.6h5.24c4.63,1,5.89,3.55,3.74,7.75l-2,2,2.2,1.38,1.53,2.56ZM464,473.12l-.05-1.58,1.07-.37-1.57-5.61-2.48,0-1.1,5.4,1.7.1,0,2.06-1.75-.1c-1.64.05-3.21.07-4.72.06l-.3-1.79,1.77-.36,1.21-3.47,2.68-11.14-1.18-.11.13-2.45,2.52.25,2,.12,1.42-.33.23,2.11-1.08.29.17.56,4.36,14.47,1.52,0-.07.81.49,1.12-7-.05m-11.18-14.81-1.79-.08-.25-.82-.18-.39-.61-.48-.69-.32-1.12-.26-.92,0-.06,8.26-.06,2,0,5.34,1.36.09,0,.15,1.24.21-.09,1.09L441,473v-1.18c.22-.08.42-.13.63-.19v-.12H442a8.14,8.14,0,0,1,1.38-.27l.13-15.45-.65,0-1.14.13-1.12.25-.7.31-.61.47-.19.38-.27.82-1.78.06v-4.39h.53l4.25,0,3.79,0,6.67.05h.53Zm367.29-20.94s-159.72,1-194.47.77-190.3-.12-190.3-.12-21.49-2.64-24.86,4.8c0,0,.55,33.59,3.81,39.83s402.08,8.18,407.07,4.48,8.57-36,8.57-36l3.35-4.95s1.72-8.69-13.17-8.8"/><path class="cls-1" d="M482.64,456.67h-1.53l0,2.26-.13,2.72c2.64-1.44,3.21-3.09,1.69-5"/><polygon class="cls-1" points="731.76 465.85 733.46 465.86 732.48 462.36 731.76 465.85"/><path class="cls-1" d="M334.43,284.46c-3.29,4.42-15.13,3-17.77,1.2s-6.24-8.08-6.57-12.1S313.7,262.12,317,259s11.84,0,11.84,0c1.81.55,8.56,8.66,10.53,12.06s-1.65,9-4.93,13.37M328.86,226s-19.78-7.85-36.19-10.53c-1.92-.59-5.08-1.68-4.09-3.66,8.08-32.11,21.73-44.37,30.79-73.06A82.68,82.68,0,0,1,286.86,128c-10.7,31.4-13.24,52.83-23.24,84.84-2.44,0-8.84.74-9.07-1.57,2.94-38.57,5.09-65.06,7.53-101.81-9.1-4.23-22.29-2-35.8-1.67,2.22,33,4.95,73.23,6,107.44-2.71.37-5.18.93-7.94,1.42-2.06-5.38-14.34-73.73-20.9-100.35-11.49,4.69-39.91,3.73-37,14.14,1.63,5.82,7.82,17.79,10.24,24.57,9.31,26.2,16.33,50.22,22.87,67-21-27.16-26.05-45.07-48.89-67.28-8,8.09-20.15,16.84-26.68,26.21,20.61,19.88,33.32,31.52,52.7,50.32-34.95,14.93-63.36,39.26-73.45,46.38l-1.87,1.43c-14.67-17.15-51.56-56.49-88.61-65.86L8.58,265.68l25.05,18L15.07,297.05l4.8,28.6,30.47-3.83L19.88,341.35l6.31,47.17s39.11-11.07,73-63.45a120.06,120.06,0,0,0,14.63,7.49c13.59,5.95,50.82,29.78,73.19,35.34-20.4,22.31-22.83,20-54.74,46.59,9.66,9.31,15.65,14.37,27.53,21.88,9.54-14.82,32.78-42.29,47.24-62.76-7.78,34.52-24.07,72-32.62,105.66,11.73,2.63,27,6.34,40.18,5.26,3-35.62,3.45-73.25,7.71-107.41,2.3-1.12,9.08-.64,11.17.79.34,36.2-.36,75.62.81,108.82a191.33,191.33,0,0,0,34.7-1.61c-6.35-35.91-16.24-72.94-20.78-107.8,1.18.22,4.19-.69,6.94-.33,12.49,33.2,25,42.23,36.62,76.14,13.54-4.23,22.81-7.25,36-17.75C306,409.18,290.6,398,268.21,376.26a168.28,168.28,0,0,0,36.33-6.37c5.52-1.64,27.48-12,27.48-12L362.23,341s25-20.86,34-43.43c1.43-3.56-1.49-13.33-1.44-17.65.22-19-47-44.75-65.95-53.94"/></g></svg>