<?xml version="1.0" encoding="utf-8"?>
<!-- Generator: Adobe Illustrator 25.0.0, SVG Export Plug-In . SVG Version: 6.00 Build 0)  -->
<svg version="1.1" xmlns="http://www.w3.org/2000/svg" xmlns:xlink="http://www.w3.org/1999/xlink" x="0px" y="0px"
	 viewBox="0 0 841.89 595.28" style="enable-background:new 0 0 841.89 595.28;" xml:space="preserve">
<style type="text/css">
	.st0{fill:#0596B3;}
</style>
<g id="Fondo">
</g>
<g id="Logo">
	<g>
		<path class="st0" d="M591.18,256.01c0.11,1.7,0.63,2.56,1.57,2.6l0.09-0.04l0.09-0.04l7.38-0.12c0.53,0,0.91-0.18,1.15-0.56
			c0.24-0.38,0.36-1.03,0.37-1.97c0-0.06-0.01-0.58-0.03-1.56c-0.02-0.98-0.03-1.92-0.02-2.83c0.09-10.76,0.84-21.8,2.27-33.11
			c0.3-2.16,0.45-3.46,0.45-3.9c0-0.32-0.19-0.63-0.58-0.93c-0.39-0.3-0.83-0.44-1.33-0.45l-11.12,0.01
			c-0.93-0.01-1.61,0.14-2.04,0.45c-0.42,0.3-0.64,0.78-0.64,1.42l0,0.22l2.34,39.99C591.17,255.41,591.19,255.68,591.18,256.01"/>
		<path class="st0" d="M591.01,271.62c1.48,0.31,2.72,0.59,3.72,0.84c-1.4,0.65-2.96,1.25-4.7,1.78c-1.74,0.54-2.61,1.01-2.61,1.43
			c-0.01,0.64,0.34,1.43,1.02,2.36c0.69,0.93,1.28,1.39,1.78,1.4c0.22,0,0.95-0.57,2.18-1.72c1.23-1.15,2.36-2.15,3.39-2.99
			c-0.18,1.38-0.42,2.8-0.73,4.27c-0.31,1.47-0.46,2.27-0.46,2.41c0,0.31,0.17,0.55,0.51,0.72c0.34,0.17,0.85,0.25,1.54,0.26
			c1.13,0.01,1.96-0.07,2.49-0.24c0.53-0.17,0.8-0.44,0.8-0.81c0-0.16-0.12-0.7-0.38-1.63c-0.25-0.94-0.75-2.66-1.49-5.17
			c1.24,0.84,2.51,1.83,3.83,2.95c1.32,1.13,2.1,1.69,2.34,1.69c0.46,0,1.01-0.47,1.64-1.41c0.63-0.94,0.95-1.74,0.95-2.38
			c0-0.52-0.99-1.03-2.99-1.51c-1.76-0.43-3.26-0.83-4.5-1.21c1.38-0.55,3-1.08,4.88-1.61c1.65-0.47,2.48-0.92,2.49-1.34
			c0-0.66-0.33-1.46-1.01-2.4c-0.68-0.94-1.28-1.41-1.8-1.41c-0.2,0-0.91,0.55-2.13,1.66c-1.21,1.11-2.32,2.06-3.31,2.88
			c0.2-1.38,0.48-2.76,0.84-4.16c0.36-1.4,0.55-2.14,0.55-2.23c0-0.37-0.2-0.64-0.62-0.81c-0.42-0.18-1.1-0.27-2.04-0.27
			c-0.96-0.01-1.66,0.07-2.09,0.25c-0.43,0.17-0.64,0.44-0.65,0.81c0,0.09,0.18,0.84,0.52,2.26c0.35,1.42,0.63,2.83,0.84,4.23
			c-1.25-0.78-2.51-1.68-3.76-2.72c-1.25-1.04-1.98-1.56-2.18-1.56c-0.46,0-1.01,0.46-1.64,1.39c-0.63,0.93-0.95,1.72-0.95,2.36
			C587.29,270.54,588.53,271.1,591.01,271.62"/>
		<polygon class="st0" points="449.08,279.38 448.28,275.05 444.54,274.55 444.14,274 442.83,242.51 444.33,242.29 458.27,273.26 
			459.38,277.71 459.69,279.45 468.83,279.52 471.64,279.54 472.08,272.81 468.32,271.74 468.82,225.77 469.11,221.56 
			472.88,221.05 473.29,217.45 473.51,213.91 471.15,213.89 468.46,213.87 462.2,213.83 453.7,213.77 454.54,220.62 458.95,221.07 
			459.23,254.68 453.4,241.9 445.83,222.48 449.23,220.94 449.33,216.98 448.9,213.73 445.84,213.71 438.81,213.66 430.88,213.61 
			430.69,221.23 435.16,221.98 435.45,273.51 430.46,273.18 430.35,279.18 430.16,279.24 		"/>
		<path class="st0" d="M499.96,236.27l2.96,12l-5.14-0.04L499.96,236.27z M493.33,279.43l5.3,0.34l-0.07-7.09l-5.17-0.34l3.37-18.54
			l7.53,0.05l4.74,19.25l-3.27,1.3l0.15,5.4c7.84,0.06,14.96,0.11,21.35,0.15l-1.5-3.85l0.21-2.76l-4.6-0.09l-13.21-49.7l-0.5-1.93
			l3.27-1l-0.71-7.21l-4.29,1.11l-6.14-0.4l-7.66-0.84l-0.39,8.41l3.58,0.39l-8.17,38.25l-3.67,11.93l-5.38,1.22l0.91,6.13
			C483.57,279.66,488.34,279.6,493.33,279.43"/>
		<path class="st0" d="M541.33,259.63l-6.85,1.15l-1.73,16.62l8.03,2.7l2-2.87l7.01,2.93l2.49,0.02l7.8,0.05
			c13.59,0.1,20.44-5.32,20.52-16.25c3.3-12.55-2.4-19.67-17.09-21.38l-0.54,0.24l-0.36-0.25l-5.69-0.28
			c-4.99,0.73-8.32-1.52-9.98-6.74c-1.77-8.02,1.63-12.14,10.2-12.36l9.32,1.81l-0.26,8.35c1.74,0.33,4.51,0.79,8.3,1.38l2.36-7.31
			l0.09-10.75l-5.15-3.58l-2.49-0.02l-2.64,1.78l-2.54-1.82l-7.73-0.06c-15.47-0.11-23.25,6.4-23.36,19.53
			c-0.3,10.33,5.55,16.74,17.55,19.22l10.99,1.26c6.94,1.65,9.55,4.72,7.79,9.2c-0.24,2.88-3.22,5.64-8.95,8.28l-9.26-0.85
			l-7.51-3.96C544.12,265.6,543.35,263.57,541.33,259.63"/>
		<path class="st0" d="M507.54,328.23l-3.79,17.57l-5.59,3.8c-5.58-0.04-10.43-6.16-14.55-18.36c2.29-19.52,7.27-29.26,14.93-29.2
			l6.98,7.02L507.54,328.23z M472.89,320l-0.08,9.61c4.7,19.45,10.74,29.21,18.11,29.26l10.93,0.08c12.27-5.44,18.46-14,18.55-25.69
			l0.13-16.22c0.1-12.85-7.14-21.55-21.72-26.1C481.68,293.42,473.03,303.1,472.89,320"/>
		<path class="st0" d="M466.1,306.18c2.3-6.72,3.65-10.95,4.06-12.69l-6.32-1.91l-1.2,1.36l-7.12-1.42
			c-15.32,0.55-23.17,8.21-23.56,22.97l-0.35,9.98l0.3,4.04l1.69,11.17l1.61,5.29l3.82,9.27l7.55,4.95l15.78,0.17l5.19-5.05
			c2.06-4.29,2.08-7.08,0.07-8.37l-4.55-0.53l-3.26,3.33l-3.11,1.16l-5.4-1.28c-8.6-14.04-9.6-28.95-3.01-44.74l4.71-2.39l7.39,0.67
			l-0.35,2.91L466.1,306.18z"/>
		<path class="st0" d="M529.4,339.7l1.61,5.29l3.82,9.27l7.55,4.95l15.78,0.18l5.19-5.05c2.06-4.29,2.08-7.08,0.07-8.38l-4.55-0.53
			l-3.26,3.33l-3.11,1.16l-5.4-1.28c-8.6-14.04-9.6-28.95-3.01-44.74l4.7-2.39l7.39,0.67l-0.35,2.91l6.06,1.1
			c2.3-6.72,3.65-10.95,4.06-12.69l-6.32-1.91l-1.2,1.36l-7.12-1.42c-15.32,0.55-23.17,8.21-23.56,22.97l-0.34,9.98l0.3,4.03
			L529.4,339.7z"/>
		<path class="st0" d="M593.43,316.17l2.96,12l-5.14-0.04L593.43,316.17z M580.62,340.25l-3.67,11.93l-5.38,1.22l0.91,6.13
			c4.56,0.03,9.33-0.03,14.32-0.2l5.3,0.34l-0.07-7.09l-5.18-0.34l3.38-18.53l7.53,0.05l4.74,19.25l-3.27,1.3l0.15,5.41
			c7.84,0.06,14.96,0.11,21.35,0.15l-1.5-3.85l0.21-2.76l-4.6-0.09l-13.21-49.7l-0.49-1.93l3.27-1l-0.71-7.21l-4.29,1.11l-6.13-0.4
			l-7.66-0.84l-0.39,8.41l3.58,0.39L580.62,340.25z"/>
		<polygon class="st0" points="456.94,206.27 464.54,202.64 462.4,198.94 456.71,201.19 449.43,198.85 440.77,199.8 440.72,206.15 
			449.12,204.43 		"/>
		<polygon class="st0" points="568.32,390.73 568.59,390.92 568.88,390.92 569.44,390.55 569.17,389.98 568.6,389.98 		"/>
		<path class="st0" d="M573.95,380.6l-0.88-0.01l-0.01,1.23l-0.11,1.97l0.05-0.32C574.77,382.61,575.08,381.66,573.95,380.6"/>
		<path class="st0" d="M471.16,379.87l-0.88-0.01l-0.01,1.23l-0.11,1.97l0.05-0.32C471.98,381.88,472.29,380.92,471.16,379.87"/>
		<path class="st0" d="M565.93,380.54l-0.88-0.01l-0.01,1.23l-0.11,1.97l0.05-0.32C566.74,382.56,567.06,381.6,565.93,380.54"/>
		<polygon class="st0" points="576.35,390.78 576.62,390.98 576.9,390.98 577.47,390.6 577.19,390.04 576.63,390.04 		"/>
		<path class="st0" d="M531.46,380.3l-0.79-0.01l-0.01,1.16l-0.32,6.29l-0.01,0.22l0.54,0.02c1.07,0.01,1.62-1.31,1.64-3.95
			l0.01-0.71C532.4,381.31,532.05,380.3,531.46,380.3"/>
		<polygon class="st0" points="473.56,390.05 473.83,390.24 474.11,390.25 474.68,389.87 474.4,389.31 473.84,389.31 		"/>
		<polygon class="st0" points="488.44,383.81 489.32,383.82 488.81,382.02 		"/>
		<polygon class="st0" points="611.6,384.69 612.48,384.7 611.97,382.89 		"/>
		<polygon class="st0" points="441.77,383.48 442.64,383.49 442.13,381.68 		"/>
		<path class="st0" d="M451.84,383.84l-0.17,3.35l-0.01,0.22l0.54,0.02C454.39,386.05,454.27,384.86,451.84,383.84"/>
		<path class="st0" d="M612.99,389.44l-0.03-0.81l0.56-0.19l-0.81-2.9l-1.28-0.01l-0.57,2.79l0.88,0.05l0.02,1.06l-0.9-0.05
			c-0.85,0.02-1.66,0.03-2.43,0.03l-0.16-0.92l0.92-0.18l0.62-1.79l1.38-5.75l-0.61-0.06l0.06-1.26l1.3,0.13l1.04,0.06l0.73-0.17
			l0.12,1.08l-0.55,0.15l0.08,0.29l2.25,7.48l0.78,0.01l-0.03,0.42l0.25,0.58C615.53,389.46,614.32,389.45,612.99,389.44
			 M605.85,389.39l-0.27,0l-3.44-0.02l-0.54,0l-3.01-0.02l-0.05-0.63l0.97-0.28l0.13-8.19c-0.42,0.07-0.88,0.02-1.4-0.15l0.02-0.61
			l4.5,0.03l0,0.01l2.32,0l0.56,0.47l-0.05,1.82l-0.91-0.04l-0.13-0.43l-0.09-0.2l-0.31-0.24l-0.36-0.17l-0.59-0.14l-0.59-0.08
			l-1-0.06l-0.05,2.92l0.02,0.67l0.96,0.01l0.3-0.06l0.17,0.06l0.11,0l-0.11-0.12l0.37-0.38l0.07-0.37l0.7,0.04l-0.01,0.83l0,1.61
			l-0.77,0.03l-0.11-0.35l-0.09-0.14l-0.26-0.18l-0.3-0.12l-0.35-0.07l-0.69,0l-0.03,3.52l1.34,0.03l0.59-0.07l0.22,0.27l-0.03-0.3
			l1.08-0.51l0.1-0.2l0.13-0.42l0.91-0.03L605.85,389.39z M596.08,379.98l-0.07,0.54l-0.64,0.08l-0.05,0.63l-0.08,6.91l0.64,0.16
			l-0.07,1.01l-0.48,0l-1.55-0.01l-0.05-0.26l-0.19-0.67l-2.37-4.66l-0.26,0.03l0.23,4.73l0.07,0.08l0.64,0.07l0.14,0.65l-3.22-0.02
			l0.03-0.01l0.02-0.9l0.85,0.05l-0.06-7.75l-0.76-0.11l0.03-1.15l1.35,0.01l1.2,0.01l0.52,0l0.07,0.49l-0.02,0.6l-0.58,0.23
			l1.29,2.92l0.99,1.93l-0.05-5.05l-0.75-0.07l-0.14-1.03l1.44,0.01l1.06,0.01l0.46,0l0.4,0L596.08,379.98z M582.79,389.22
			l-0.02-0.81l0.56-0.2l-0.81-2.9l-1.28-0.01l-0.57,2.79l0.88,0.05l0.01,1.06l-0.9-0.05c-0.85,0.02-1.66,0.03-2.44,0.03l-0.15-0.92
			l0.91-0.18l0.62-1.79l1.38-5.75l-0.61-0.06l0.06-1.26l1.3,0.13l1.04,0.06l0.73-0.17l0.12,1.08l-0.55,0.15l0.08,0.29l2.25,7.48
			l0.78,0.01l-0.03,0.42l0.25,0.58C585.34,389.24,584.13,389.23,582.79,389.22 M576.39,391.9c-0.58,0-1.12-0.17-1.64-0.5
			c-0.27-0.14-0.49-0.33-0.67-0.57c-0.18-0.24-0.38-0.65-0.58-1.21l0.27-1.04l0.06-3.03l-0.82-0.57l-0.24,3.22l0.06,0.02l-0.11,0.94
			l-2.18-0.01l-0.43-0.3c0-0.44,0.26-0.65,0.79-0.64l0.32-6.99l0.01-1.16l-1.15-0.09c-0.24-0.51-0.04-0.79,0.59-0.83l2.71-0.01
			c2.39,0.5,3.08,1.83,2.07,4.01l-0.94,0.78l-0.18,0.05h0.08c0.46,0,0.85,0.68,1.19,2.03l-0.72,3.34l0.65,0.83l0.82-0.72l1.09,0.02
			c0.39,0,0.73,0.35,1.01,1.05C578.08,391.44,577.39,391.9,576.39,391.9 M568.37,391.84c-0.58,0-1.13-0.17-1.64-0.5
			c-0.27-0.14-0.49-0.33-0.67-0.57c-0.18-0.24-0.38-0.65-0.58-1.21l0.27-1.04l0.05-3.03l-0.82-0.57l-0.24,3.22l0.06,0.02l-0.11,0.94
			l-2.18-0.02l-0.43-0.3c0-0.44,0.26-0.65,0.79-0.64l0.32-6.99l0.01-1.16l-1.15-0.09c-0.24-0.51-0.04-0.79,0.59-0.83l2.71-0.01
			c2.39,0.5,3.08,1.83,2.08,4.01l-0.94,0.78l-0.18,0.05h0.08c0.46,0,0.85,0.68,1.19,2.03l-0.73,3.34l0.65,0.83l0.82-0.72l1.09,0.02
			c0.39,0,0.73,0.36,1.01,1.05C570.05,391.38,569.37,391.85,568.37,391.84 M559.59,389.06l-0.27,0l-3.44-0.02l-0.54,0l-3.01-0.02
			l-0.05-0.63l0.97-0.28l0.13-8.19c-0.42,0.07-0.89,0.02-1.4-0.15l0.02-0.61l4.5,0.03v0.01l2.32,0l0.56,0.47l-0.05,1.81l-0.91-0.04
			l-0.13-0.42l-0.09-0.2l-0.32-0.25l-0.36-0.16l-0.58-0.14l-0.59-0.07l-1-0.06l-0.05,2.92l0.02,0.67l0.96,0.01l0.3-0.06l0.18,0.06
			l0.11,0l-0.11-0.12l0.37-0.38l0.07-0.37l0.7,0.04l-0.01,0.83l0,1.61l-0.77,0.03l-0.11-0.35l-0.09-0.14l-0.26-0.18l-0.3-0.12
			l-0.35-0.07l-0.69,0l-0.03,3.52l1.34,0.03l0.59-0.07l0.22,0.27l-0.03-0.3l1.08-0.51l0.1-0.2l0.13-0.42l0.91-0.03L559.59,389.06z
			 M551.17,381.4l-0.92-0.04l-0.13-0.43l-0.09-0.2l-0.31-0.25l-0.36-0.17l-0.57-0.14l-0.48-0.02l-0.03,4.26l-0.03,1.01l0.01,2.75
			l0.71,0.05l0.01,0.07l0.64,0.11l-0.05,0.56l-4.5-0.03l0.01-0.61c0.12-0.04,0.22-0.06,0.33-0.09v-0.07h0.22
			c0.26-0.07,0.5-0.12,0.71-0.14l0.06-7.97l-0.34,0.02l-0.59,0.07l-0.58,0.13l-0.36,0.16l-0.32,0.24l-0.1,0.2l-0.13,0.42l-0.92,0.03
			l0.01-2.26l0.27,0l2.19,0.02l1.96,0.01l3.44,0.03l0.27,0L551.17,381.4z M540.76,379.8l-1.04,0.04l-0.15,7.51l0.11-3.75l-0.04,4.51
			l0.79,0.18l-0.13,0.63l-0.61,0l-2.84-0.02l-0.06-0.63l0.93-0.28l0.13-8.19c-0.4,0.07-0.84,0.02-1.32-0.15l0.02-0.61l4.25,0.03
			L540.76,379.8z M582.33,373.09l2.08,1.13l-1.67,1.69l-1.21-0.26L582.33,373.09z M533.95,385.95l-0.28,0.79l-0.65,1.38l-1.26,0.73
			l-3.54-0.01l-0.43-0.3c0-0.44,0.26-0.65,0.79-0.64l0.32-6.99l0.01-1.16l-1.15-0.09c-0.24-0.51-0.05-0.79,0.59-0.83l2.71-0.01
			c2.13,0.01,3.18,1.42,3.16,4.22l-0.01,1.16l0.05,0.07L533.95,385.95z M525.24,388.81l-0.27,0l-3.44-0.02l-0.54,0l-3.01-0.02
			l-0.05-0.63l0.97-0.28l0.13-8.19c-0.42,0.07-0.89,0.02-1.4-0.15l0.02-0.61l4.5,0.03l0,0.01l2.32,0l0.56,0.47l-0.05,1.81
			l-0.91-0.04l-0.13-0.42l-0.09-0.2l-0.32-0.25l-0.36-0.16l-0.59-0.14l-0.59-0.08l-1-0.06l-0.05,2.92l0.02,0.67l0.96,0.01l0.3-0.06
			l0.17,0.06l0.11,0l-0.11-0.12l0.37-0.38l0.07-0.37l0.7,0.04l-0.01,0.83l0,1.61l-0.77,0.03l-0.11-0.35l-0.08-0.14l-0.26-0.18
			l-0.3-0.12l-0.35-0.06l-0.7-0.01l-0.03,3.52l1.34,0.03l0.59-0.07l0.22,0.27l-0.03-0.3l1.08-0.51l0.1-0.2l0.13-0.42l0.91-0.03
			L525.24,388.81z M512.42,388.72l-0.28-0.95l0.72-0.12l-1.29-4.95l-0.26,0l-0.67,4.56l0.24,0.07l0.75,0.36l-0.23,0.94
			c-0.84,0.05-1.82,0.1-2.94,0.14l-0.45-0.91l0.77-0.2l-1.16-4.41l-0.15-0.53l-0.25,0l-0.05,0.23l-0.79,4.65l0.67,0.06l0,1.02
			l-2.86-0.02l0.05-0.94l0.62-0.12l1.56-7.12l-0.86-0.34l-0.11-0.91l1.73-0.06l1.39-0.14l0,0l0.01,0v0.01l0.17,0.23l0.07,0.23
			l0.02,0.01l0,0.25l-0.54,0.49l1.32,4.37l0.9-4.17l-0.68-0.35l0.08-0.9l1.41,0.02l1.34-0.23l0,0.23l0.26,0.25l0.02,0.56l-0.56,0.19
			l2.08,7.2l0.95,0.05l0.08,0.51l0.02,0.74C514.64,388.74,513.61,388.73,512.42,388.72 M489.83,388.56l-0.03-0.81l0.56-0.19
			l-0.81-2.9l-1.28-0.01l-0.57,2.79l0.88,0.05l0.01,1.06l-0.9-0.05c-0.85,0.02-1.66,0.03-2.43,0.03l-0.16-0.92l0.91-0.18l0.62-1.79
			l1.38-5.75l-0.61-0.06l0.06-1.26l1.3,0.13l1.04,0.06l0.73-0.17l0.12,1.08l-0.55,0.15l0.08,0.29l2.25,7.47l0.78,0.02l-0.03,0.41
			l0.25,0.58C492.37,388.58,491.16,388.57,489.83,388.56 M482.72,379.18l-0.07,0.54l-0.64,0.07l-0.05,0.63l-0.08,6.91l0.64,0.16
			l-0.07,1.01l-0.48,0l-1.55-0.01l-0.05-0.26l-0.19-0.67l-2.37-4.66l-0.26,0.03l0.23,4.74l0.07,0.08l0.64,0.07l0.14,0.65l-3.21-0.02
			l0.03-0.01l0.02-0.9l0.85,0.05l-0.06-7.75l-0.76-0.11l0.03-1.15l1.35,0.01l1.19,0.01l0.52,0l0.07,0.49l-0.02,0.6l-0.58,0.23
			l1.29,2.92l0.99,1.93l-0.05-5.05l-0.75-0.07l-0.14-1.03l1.44,0.01l1.07,0.01l0.45,0l0.4,0L482.72,379.18z M473.6,391.16
			c-0.58,0-1.13-0.17-1.64-0.5c-0.27-0.14-0.49-0.33-0.68-0.57c-0.18-0.24-0.38-0.65-0.58-1.21l0.27-1.04l0.06-3.03l-0.82-0.57
			l-0.24,3.22l0.06,0.02l-0.11,0.94l-2.18-0.02l-0.43-0.3c0-0.44,0.26-0.65,0.79-0.64l0.32-6.99l0.01-1.17l-1.15-0.09
			c-0.24-0.51-0.04-0.79,0.59-0.83l2.71-0.01c2.39,0.5,3.09,1.83,2.07,4.01l-0.94,0.78l-0.18,0.05l0.08,0
			c0.46,0,0.85,0.68,1.19,2.03l-0.72,3.34l0.64,0.84l0.82-0.72l1.08,0.02c0.39,0,0.73,0.35,1.01,1.05
			C475.29,390.71,474.6,391.17,473.6,391.16 M464.83,388.38l-0.27,0l-3.44-0.02l-0.54,0l-3.01-0.02l-0.05-0.63l0.97-0.28l0.13-8.19
			c-0.42,0.07-0.89,0.02-1.4-0.15l0.02-0.61l4.5,0.03v0.01l2.32,0l0.56,0.47l-0.05,1.82l-0.91-0.04l-0.13-0.42l-0.1-0.2l-0.31-0.25
			l-0.36-0.16l-0.59-0.14l-0.59-0.08l-1-0.06l-0.05,2.92l0.01,0.67l0.96,0.01l0.3-0.06l0.17,0.06h0.11l-0.11-0.12l0.37-0.38
			l0.07-0.37l0.7,0.04l-0.01,0.83l0,1.61l-0.77,0.03l-0.11-0.35l-0.09-0.14l-0.26-0.18l-0.3-0.12l-0.35-0.06l-0.69-0.01l-0.03,3.52
			l1.34,0.03l0.59-0.07l0.22,0.27l-0.03-0.3l1.08-0.51l0.1-0.2l0.14-0.42l0.91-0.03L464.83,388.38z M455.09,386.55l-0.79,1.01
			l-1.25,0.73l-3.54-0.02l-0.43-0.3c0-0.44,0.26-0.65,0.79-0.64l0.32-6.99l0.01-1.17l-1.15-0.09c-0.24-0.52-0.04-0.79,0.59-0.83
			l2.71-0.01c2.39,0.5,3.04,1.83,1.93,4l-1.05,1.03l1.14,0.71l0.79,1.32L455.09,386.55z M443.15,388.23l-0.03-0.81l0.56-0.19
			l-0.81-2.9l-1.28-0.01l-0.57,2.79l0.88,0.05l0.01,1.07l-0.9-0.05c-0.85,0.02-1.66,0.03-2.44,0.03l-0.16-0.92l0.92-0.18l0.62-1.79
			l1.38-5.75l-0.61-0.06l0.06-1.26l1.3,0.13l1.04,0.06l0.73-0.17l0.12,1.08l-0.56,0.15l0.08,0.29l2.25,7.47l0.78,0.02l-0.04,0.42
			l0.25,0.58C445.7,388.25,444.49,388.24,443.15,388.23 M437.38,380.59l-0.92-0.04l-0.13-0.42l-0.09-0.2l-0.31-0.25l-0.36-0.17
			l-0.58-0.14l-0.48-0.02l-0.03,4.26l-0.03,1.01l0.01,2.75l0.71,0.05l0.01,0.07l0.64,0.11l-0.05,0.56l-4.5-0.03l0.01-0.61
			c0.12-0.04,0.22-0.06,0.33-0.09v-0.07h0.22c0.26-0.07,0.5-0.12,0.71-0.14l0.06-7.97l-0.34,0.02l-0.59,0.07l-0.58,0.13l-0.36,0.16
			l-0.32,0.24l-0.1,0.2l-0.14,0.42l-0.92,0.03l0.01-2.26l0.27,0l2.19,0.02l1.96,0.01l3.44,0.03l0.27,0L437.38,380.59z M627,369.77
			c0,0-82.45,0.52-100.39,0.4c-17.94-0.13-98.24-0.06-98.24-0.06s-11.1-1.36-12.84,2.48c0,0,0.29,17.34,1.97,20.56
			c1.68,3.22,207.57,4.22,210.15,2.31s4.42-18.59,4.42-18.59l1.73-2.56C633.79,374.32,634.68,369.83,627,369.77"/>
		<path class="st0" d="M452.8,379.74l-0.79-0.01l-0.01,1.17l-0.07,1.41C453.28,381.56,453.58,380.71,452.8,379.74"/>
		<polygon class="st0" points="581.4,384.47 582.28,384.48 581.77,382.68 		"/>
		<path class="st0" d="M376.28,290.84c-1.7,2.28-7.81,1.55-9.17,0.62c-1.36-0.93-3.23-4.17-3.4-6.25c-0.17-2.07,1.87-5.9,3.57-7.5
			c1.7-1.6,6.11,0,6.11,0c0.93,0.28,4.41,4.47,5.43,6.22C379.85,285.69,377.98,288.56,376.28,290.84 M373.41,260.65
			c0,0-10.21-4.05-18.69-5.43c-0.99-0.31-2.62-0.87-2.11-1.89c4.17-16.58,11.22-22.91,15.89-37.72c-6.94-0.9-11.75-2.69-16.78-5.55
			c-5.52,16.21-6.84,27.27-12,43.8c-1.26-0.02-4.56,0.39-4.68-0.81c1.52-19.92,2.62-33.59,3.89-52.56
			c-4.7-2.18-11.51-1.02-18.48-0.86c1.14,17.05,2.56,37.8,3.11,55.46c-1.4,0.19-2.67,0.48-4.1,0.73
			c-1.07-2.77-7.41-38.06-10.79-51.8c-5.93,2.42-20.6,1.92-19.1,7.3c0.84,3.01,4.04,9.19,5.29,12.69
			c4.81,13.52,8.43,25.92,11.81,34.59c-10.82-14.02-13.45-23.27-25.24-34.73c-4.15,4.17-10.4,8.69-13.77,13.53
			c10.64,10.26,17.2,16.27,27.21,25.98c-18.04,7.71-32.71,20.27-37.92,23.94c0,0-0.35,0.26-0.96,0.74
			c-7.57-8.85-26.62-29.16-45.75-34l-2.17,27.08l12.93,9.31l-9.58,6.89l2.48,14.76l15.73-1.98l-15.73,10.08l3.26,24.35
			c0,0,20.19-5.72,37.67-32.76c2.01,1.23,4.41,2.49,7.55,3.87c7.01,3.07,26.24,15.37,37.78,18.25
			c-10.53,11.52-11.79,10.34-28.26,24.05c4.99,4.8,8.08,7.41,14.21,11.29c4.92-7.65,16.92-21.83,24.39-32.4
			c-4.02,17.82-12.43,37.16-16.84,54.55c6.06,1.36,13.92,3.27,20.74,2.72c1.53-18.39,1.78-37.82,3.98-55.45
			c1.18-0.58,4.69-0.33,5.77,0.41c0.18,18.69-0.19,39.04,0.42,56.18c6.5,0.31,12.36-0.09,17.91-0.83
			c-3.27-18.54-8.38-37.66-10.72-55.65c0.6,0.11,2.16-0.36,3.58-0.17c6.45,17.14,12.92,21.8,18.9,39.31
			c6.99-2.18,11.78-3.74,18.57-9.17c-11.2-13.52-19.16-19.28-30.72-30.52c6.35-0.44,12.66-1.47,18.76-3.29
			c2.85-0.85,14.18-6.18,14.18-6.18l15.59-8.73c0,0,12.89-10.77,17.56-22.42c0.74-1.84-0.77-6.88-0.74-9.12
			C407.56,278.69,383.18,265.39,373.41,260.65"/>
	</g>
</g>
</svg>
